<?xml version="1.0" standalone="no"?>
<!DOCTYPE svg PUBLIC "-//W3C//DTD SVG 1.1//EN" "http://www.w3.org/Graphics/SVG/1.1/DTD/svg11.dtd" >
<svg xmlns="http://www.w3.org/2000/svg">
<metadata>
<json>
<![CDATA[
{
	"fontFamily": "XO",
	"majorVersion": 1,
	"minorVersion": 0,
	"version": "Version 1.0",
	"fontId": "XO",
	"psName": "XO",
	"subFamily": "Regular",
	"fullName": "XO",
	"description": "Font generated by IcoMoon."
}
]]>
</json>
</metadata>
<defs>
<font id="XO" horiz-adv-x="1024">
<font-face units-per-em="1024" ascent="960" descent="-64" />
<missing-glyph horiz-adv-x="1024" />
<glyph unicode="&#x20;" horiz-adv-x="512" d="" />
<glyph unicode="&#xe900;" glyph-name="arrow-down" data-tags="arrow-down" d="M73.216 745.984c-7.68-1.434-17.51-4.915-26.112-9.318-20.070-10.342-35.328-29.184-42.598-52.634-2.662-8.294-2.97-10.752-2.97-24.064 0-12.39 0.41-16.179 2.355-22.835 3.072-10.854 8.192-21.402 14.643-29.901 6.349-8.704 422.195-425.165 435.917-436.736 10.342-8.704 21.094-14.541 33.997-18.637 6.656-2.048 9.83-2.355 23.552-2.355 13.824 0 16.896 0.307 23.552 2.458 10.342 3.174 20.787 8.294 27.648 13.414 3.072 2.253 103.219 101.683 222.515 220.979 151.654 151.654 218.317 218.931 221.798 223.949 5.53 8.090 10.342 18.33 13.005 28.16 1.434 5.018 1.843 10.342 1.843 21.504 0 13.21-0.307 15.872-2.867 24.064-11.571 37.99-44.851 62.976-84.070 62.976-18.125 0-33.382-4.608-49.664-15.155-3.584-2.253-63.898-61.747-162.816-160.461-106.701-106.496-159.13-158.106-163.328-160.87-8.499-5.427-19.968-10.24-29.389-12.083-15.872-3.277-36.557-1.536-50.483 4.096-16.794 6.861-9.728 0.205-178.176 168.346-99.226 99.021-159.744 158.72-163.328 160.973-15.872 10.24-28.467 14.234-46.592 14.746-7.27 0.102-15.565-0.102-18.432-0.614z" />
<glyph unicode="&#xe901;" glyph-name="arrow-left" data-tags="arrow-left" d="M709.325 957.952c-14.438-2.56-27.136-8.192-39.014-17.101-8.192-6.144-434.381-432.333-439.603-439.603-6.554-9.011-10.24-16.179-13.619-26.624-2.765-8.294-3.379-11.674-3.789-23.040-0.717-19.456 3.379-35.43 13.107-50.688 3.174-5.018 59.187-61.645 222.003-224.563 119.706-119.91 220.467-219.955 223.949-222.413 7.885-5.734 16.077-9.83 27.034-13.414 7.782-2.56 10.24-2.765 23.552-2.867 12.595-0.102 16.077 0.307 23.040 2.253 10.752 3.072 25.088 10.24 32.87 16.486 12.8 10.24 25.19 29.491 29.798 46.182 2.56 9.421 2.56 34.714-0.102 44.032-2.253 8.294-7.475 19.558-12.493 27.341-2.56 3.891-57.549 59.699-161.178 163.635-168.96 169.267-161.792 161.587-168.448 178.688-6.861 17.51-7.578 40.448-1.741 58.368 6.963 21.299-4.608 8.704 170.086 183.808 99.328 99.533 158.822 159.744 161.075 163.328 11.571 18.022 15.872 33.587 14.848 54.17-0.717 14.234-2.458 21.094-8.397 33.587-11.059 22.733-31.642 39.936-55.808 46.49-8.704 2.355-29.082 3.379-37.171 1.946z" />
<glyph unicode="&#xe902;" glyph-name="arrow-right" data-tags="arrow-right" d="M281.293 957.030c-25.293-5.53-48.026-23.757-59.597-47.514-5.939-12.493-7.68-19.354-8.397-33.587-1.024-20.582 3.277-36.147 14.848-54.17 2.253-3.584 61.747-63.898 161.075-163.328 174.694-175.104 163.123-162.509 170.086-183.808 5.837-17.92 5.12-40.858-1.741-58.368-6.656-17.101 0.512-9.421-168.448-178.688-103.629-103.936-158.618-159.744-161.178-163.635-5.018-7.782-10.24-19.046-12.493-27.341-1.434-5.12-1.946-10.342-1.946-22.016 0-17.92 1.229-23.654 8.192-38.093 10.854-22.323 29.901-38.605 54.272-45.978 8.294-2.56 10.752-2.867 24.576-2.867 14.029 0 16.077 0.307 24.064 2.867 10.957 3.584 18.944 7.578 27.546 13.619 7.987 5.53 433.459 430.592 440.627 440.115 6.758 9.011 10.547 16.179 14.234 27.136 7.885 23.552 3.891 53.35-9.933 74.342-3.482 5.325-59.29 61.747-221.901 224.461-119.501 119.603-220.058 219.443-223.437 221.901-8.192 5.837-19.251 11.264-28.365 13.824-11.059 3.174-30.208 3.686-42.086 1.126z" />
<glyph unicode="&#xe903;" glyph-name="arrow-up" data-tags="arrow-up" d="M497.050 746.086c-10.752-1.741-26.419-8.294-35.738-14.848-7.27-5.222-437.965-436.019-443.494-443.597-5.939-8.294-11.162-18.944-13.926-28.774-1.946-6.656-2.253-10.445-2.253-22.835 0-13.21 0.307-15.872 2.867-24.064 8.602-28.16 28.877-49.254 56.525-58.675 10.138-3.482 19.149-4.608 32.051-3.994 16.691 0.717 30.003 5.12 45.158 14.848 3.584 2.253 64 61.85 162.816 160.461 86.426 86.323 159.232 158.31 161.792 159.949 6.963 4.608 13.926 7.987 23.552 11.162 8.090 2.662 9.83 2.867 25.6 2.867s17.51-0.205 25.6-2.867c9.626-3.174 16.589-6.554 23.552-11.162 2.56-1.638 75.366-73.626 161.792-159.949 98.918-98.611 159.232-158.208 162.816-160.461 15.155-9.728 28.467-14.131 45.158-14.848 23.040-1.126 42.086 5.018 59.597 19.149 22.118 17.715 33.792 44.442 32.154 73.011-1.024 17.101-6.246 31.642-16.794 46.694-2.97 4.403-81.613 83.661-220.877 222.925-168.346 168.346-217.702 217.19-223.334 220.774-7.68 5.018-18.022 9.83-27.136 12.595-6.451 1.946-28.979 2.97-37.478 1.638z" />
<glyph unicode="&#xe904;" glyph-name="badge" data-tags="badge" d="M433.357 958.464c-16.179-3.584-29.901-13.312-40.346-28.672-11.571-17.203-24.781-27.648-40.243-31.949-2.765-0.717-10.752-1.843-17.613-2.355-20.275-1.536-32.563-6.861-45.568-19.763-11.059-11.059-18.227-27.648-18.227-42.701 0-9.626-2.765-21.299-7.168-30.515-5.018-10.65-13.312-19.558-25.498-27.546-14.95-9.83-24.269-21.606-29.082-36.659-1.843-5.734-2.253-9.626-2.253-19.456 0-13.824 0.922-17.306 8.294-32.768 5.734-11.981 7.885-20.48 7.885-31.232 0.102-11.366-1.434-17.51-8.090-31.744-6.656-14.541-8.602-21.914-8.602-32.87 0.102-23.654 10.65-42.086 32.563-56.525 21.094-13.926 29.696-29.184 31.846-56.73 1.638-20.48 6.349-31.437 19.456-44.339 12.8-12.8 22.733-16.896 45.363-18.944 17.101-1.638 24.474-3.891 35.738-11.366 8.192-5.427 12.083-9.523 20.173-21.606 14.029-20.787 31.949-31.027 54.682-31.027 13.005 0 17.101 1.024 31.539 7.782 14.848 6.963 21.504 8.602 33.792 8.602s19.251-1.741 32.256-8.192c5.632-2.765 13.107-5.734 16.486-6.554 8.090-2.048 23.757-2.15 31.642-0.102 15.462 3.891 29.798 14.541 39.117 28.877 6.963 10.854 11.366 15.77 19.558 21.504 10.24 7.373 19.354 10.342 36.352 12.083 7.987 0.717 16.589 2.048 19.149 2.867 8.602 2.662 18.637 8.397 25.088 14.234 13.414 12.288 19.456 25.907 20.992 46.797 1.024 14.541 2.765 21.197 7.782 30.822s13.005 18.022 24.883 26.010c20.378 13.722 30.208 29.901 31.539 51.917 0.819 12.902-1.331 22.323-7.885 35.533-6.554 13.005-8.602 20.787-8.602 32.973 0 11.571 2.355 20.275 9.114 33.69 5.325 10.65 7.68 19.661 7.68 29.901-0.102 23.552-10.957 42.598-32.461 56.73-21.197 13.926-29.901 29.286-31.949 56.013-1.638 20.48-6.963 33.178-19.149 45.363-11.981 11.981-24.883 17.408-44.749 18.944-13.619 1.024-16.896 1.741-24.986 5.018-12.186 4.813-22.733 14.029-31.642 27.546-11.264 17.101-24.678 26.726-42.701 30.515-14.95 3.072-28.058 1.126-44.646-6.963-12.902-6.144-18.125-7.68-29.798-8.602-11.162-0.819-23.45 2.048-35.84 8.397-15.36 7.987-30.72 10.342-45.875 7.066zM531.968 888.832c35.533-3.686 61.235-11.162 90.317-26.624 91.443-48.435 140.288-150.938 120.525-252.928-11.981-61.44-49.664-117.453-101.888-151.347-70.349-45.773-159.949-50.893-234.598-13.414-68.813 34.611-115.61 99.738-127.386 177.562-2.56 16.384-2.56 48.435 0 65.024 2.355 15.36 7.578 36.147 12.39 49.254 32.358 87.142 114.381 147.866 206.848 152.883 7.885 0.41 15.462 0.922 16.896 0.922 1.434 0.102 9.011-0.512 16.896-1.331zM484.864 817.766c-40.038-7.373-71.27-24.781-96.973-53.965-26.829-30.413-40.858-67.482-40.96-108.442-0.102-21.299 2.56-37.274 9.421-56.525 14.336-40.346 46.592-76.083 83.968-93.286 25.19-11.469 45.568-15.974 72.704-15.974 24.678 0 45.568 4.71 70.042 15.77 30.208 13.517 59.187 41.677 75.264 72.602 13.414 26.010 18.842 48.435 18.739 77.414-0.102 28.058-5.837 52.019-18.125 75.059-24.166 45.363-63.795 75.469-113.664 86.221-14.746 3.277-45.978 3.789-60.416 1.126zM514.765 745.779c0.41-0.717 5.427-15.565 11.059-32.973l10.342-31.846 36.147-0.205c23.962-0.205 36.659-0.614 37.376-1.331s0.717-1.638 0-2.867c-0.614-0.922-13.517-10.65-28.672-21.504-15.155-10.752-27.955-20.275-28.467-20.992-0.614-0.922 2.867-12.595 10.035-34.304 6.042-18.125 10.854-33.792 10.65-34.714-0.205-1.024-1.126-1.946-2.048-2.15s-14.234 8.909-29.594 20.173c-15.462 11.366-28.774 20.582-29.798 20.582-0.922 0-14.234-9.216-29.594-20.48s-28.877-20.48-29.901-20.48c-0.922 0-2.048 0.614-2.253 1.331-0.307 0.614 4.506 16.384 10.65 34.816 6.246 18.534 11.059 34.202 10.752 34.816-0.307 0.717-13.414 10.445-29.184 21.709-23.142 16.486-28.57 20.787-28.365 22.528 0.307 2.048 0.922 2.048 36.25 2.355 27.238 0.205 36.25 0.512 37.069 1.536 0.614 0.717 5.427 15.258 10.854 32.358 5.427 17.203 10.342 31.539 11.059 32.051 1.946 1.126 4.71 1.024 5.632-0.41zM757.35 372.429c-0.307-0.614-4.915-4.506-10.138-8.704-45.056-36.147-96.973-61.133-153.702-74.035-8.397-1.843-15.258-3.482-15.462-3.686-0.102-0.205 124.211-345.805 125.645-349.184 0.205-0.41 16.896 18.944 37.171 42.906s37.274 43.725 37.888 43.93c0.512 0.205 26.112-4.198 56.832-9.728s55.91-9.933 56.013-9.933c0.41 0.307-131.994 367.718-132.813 368.538-0.41 0.512-1.126 0.41-1.434-0.102zM265.728 370.995c-0.205-0.717-30.413-83.354-66.97-183.603s-66.458-182.374-66.355-182.477c0.205-0.102 25.088 4.198 55.501 9.523s56.013 9.523 56.934 9.421c0.922-0.205 17.715-19.456 37.274-42.803 40.038-47.923 37.171-44.544 37.786-43.93 0.717 0.717 127.59 348.365 127.283 348.672-0.102 0.205-5.837 1.536-12.493 2.97-58.266 12.493-112.742 38.502-158.515 75.469-6.349 5.222-10.138 7.578-10.445 6.758z" />
<glyph unicode="&#xe905;" glyph-name="ban" data-tags="ban" d="M486.4 959.283c-50.278-3.379-91.341-11.162-133.632-25.293-63.59-21.197-116.122-50.79-170.496-95.642-15.053-12.493-47.718-45.261-61.030-61.133-67.891-81.613-107.418-174.592-118.886-280.064-2.56-23.654-2.56-76.39 0.102-100.864 10.138-96.051 43.11-181.043 99.84-257.024 80.486-107.93 199.578-180.019 331.674-200.704 15.872-2.56 17.101-2.56 80.077-2.56 62.771 0 64.307 0.102 79.872 2.458 39.322 6.246 78.848 17.408 116.326 32.973 103.834 43.11 194.458 122.982 248.934 219.546 10.547 18.534 25.19 48.845 31.539 65.024 12.493 31.642 23.040 68.915 29.389 103.936l3.174 17.92 0.41 62.362c0.41 59.085 0.307 63.283-1.741 77.312-14.029 98.099-53.453 185.651-118.17 262.246-11.981 14.336-39.219 41.574-53.862 54.17-37.786 32.358-65.434 50.688-109.158 72.704-58.778 29.389-121.139 46.49-188.723 51.814-17.306 1.331-51.917 1.843-65.638 0.819zM542.822 794.112c69.939-6.963 133.427-32.666 187.802-76.083 12.902-10.342 41.677-39.117 51.917-51.917 43.418-54.579 69.325-118.784 75.571-187.392 2.355-26.112 0.819-63.283-3.584-89.395-5.427-31.437-17.818-69.222-32.461-98.406l-4.096-8.090-470.733 470.733 7.373 3.994c34.202 18.125 83.251 32.461 125.133 36.454 13.312 1.229 50.79 1.331 63.078 0.102zM441.856 377.037l235.11-234.906-11.571-5.734c-32.563-16.077-66.048-26.317-106.291-32.666-13.107-2.048-18.534-2.253-47.104-2.253-28.365 0-34.099 0.307-47.104 2.253-23.45 3.686-42.086 8.090-61.44 14.541-31.232 10.342-57.958 23.142-82.637 39.629-19.558 13.005-35.43 26.214-53.658 44.339-19.354 19.354-28.57 30.31-42.189 50.176-29.798 43.827-48.64 92.262-57.242 147.456-1.946 13.107-2.253 18.739-2.253 47.616 0 26.112 0.307 35.226 1.741 45.056 4.301 28.979 11.981 58.675 21.094 81.715 6.042 15.155 16.486 37.581 17.613 37.581 0.41 0 106.598-105.677 235.93-234.803z" />
<glyph unicode="&#xe906;" glyph-name="bell" data-tags="bell" d="M484.352 959.386c-1.946-0.205-9.318-0.922-16.384-1.536-28.16-2.355-60.621-9.421-91.648-19.763-91.648-30.618-175.514-98.611-226.816-184.013-29.594-49.152-48.128-101.99-56.525-161.075-2.048-14.541-2.253-20.275-2.56-99.123l-0.41-83.763h-90.010v-153.6h1024v153.6h-90.112v65.843c0 87.962-1.331 109.568-8.704 146.637-26.726 133.632-118.067 246.886-243.712 301.978-40.346 17.818-93.286 30.822-139.162 34.406-12.083 0.922-49.357 1.126-57.958 0.41zM310.784 199.987c-7.782-27.341-9.421-64.41-4.096-92.467 9.728-50.688 34.714-92.672 74.24-125.030 38.195-31.13 89.702-48.23 138.752-46.080 54.272 2.355 101.376 22.938 139.776 61.030 30.003 29.696 49.562 66.97 57.856 110.080 5.325 28.058 3.686 65.126-4.096 92.467l-1.638 5.325h-399.155l-1.638-5.325z" />
<glyph unicode="&#xe907;" glyph-name="bell-plus" data-tags="bell-plus" d="M435.2 959.386c-1.946-0.205-8.909-0.922-15.36-1.536-73.83-6.861-146.637-38.4-205.107-88.781-22.118-19.046-37.069-34.611-54.682-57.344-38.81-49.766-64.614-108.954-74.445-170.701-4.301-27.136-4.71-36.557-4.71-107.725v-67.891h-80.896v-138.24h563.917l6.246 8.397c13.619 18.227 37.581 41.779 57.446 56.525 58.163 43.008 130.253 62.259 201.523 53.862 29.082-3.379 57.344-10.957 82.33-22.016l10.138-4.506v45.978h-80.691l-0.512 70.451c-0.614 73.626-0.922 80.179-5.837 110.592-8.294 50.893-30.208 104.448-61.235 149.709-21.504 31.437-53.146 64.102-85.811 88.883-51.712 39.014-116.019 64.205-186.778 72.909-8.806 1.126-58.982 2.253-65.536 1.434zM764.826 387.584c-55.194-8.090-105.165-35.738-141.107-78.336-26.419-31.13-43.827-69.12-50.995-111.104-2.56-15.155-2.662-55.398 0-70.349 6.861-40.141 22.426-75.264 47.411-107.11 13.414-16.998 36.454-37.274 57.242-50.381 26.829-16.896 65.331-30.208 95.334-33.075 10.547-0.922 38.707-0.922 49.050 0.102 15.053 1.434 37.888 6.758 53.555 12.595 70.042 25.805 123.802 85.504 141.517 157.082 2.56 10.445 3.482 14.95 5.632 28.672 1.434 8.499 1.741 37.376 0.614 48.333-5.632 53.453-28.16 101.274-65.126 138.65-29.594 29.798-63.283 49.050-105.779 60.416-24.474 6.554-60.518 8.397-87.347 4.506zM834.56 272.384v-72.192h144.384v-74.752h-144.384v-144.384h-74.752l-0.205 71.987-0.307 71.885-143.872 0.512v74.752l143.872 0.512 0.307 71.987 0.205 71.885h74.752v-72.192zM281.19 280.269c-1.126-1.946-4.915-18.637-6.246-28.16-1.946-13.722-1.946-39.117 0-52.531 4.403-29.389 14.746-55.398 32.666-81.818 8.090-12.083 31.642-35.635 44.646-44.851 21.606-15.155 50.074-26.931 76.288-31.539 18.842-3.379 45.67-3.379 64.512 0 11.674 2.048 35.328 8.806 39.322 11.264 1.126 0.717 0.717 2.662-2.253 10.445-24.781 66.253-23.962 138.957 2.253 205.619 2.355 5.939 4.198 11.059 4.198 11.571 0 1.024-254.669 1.126-255.386 0z" />
<glyph unicode="&#xe908;" glyph-name="bell-times" data-tags="bell-times" d="M435.2 959.386c-1.946-0.205-8.909-0.922-15.36-1.536-73.83-6.861-146.637-38.4-205.107-88.781-22.118-19.046-37.069-34.611-54.682-57.344-38.81-49.766-64.614-108.954-74.445-170.701-4.301-27.136-4.71-36.557-4.71-107.725v-67.891h-80.896v-138.24h563.917l6.246 8.397c13.619 18.227 37.581 41.779 57.446 56.525 58.163 43.008 130.253 62.259 201.523 53.862 29.082-3.379 57.344-10.957 82.33-22.016l10.138-4.506v45.978h-80.691l-0.512 70.451c-0.614 73.626-0.922 80.179-5.837 110.592-8.294 50.893-30.208 104.448-61.235 149.709-21.504 31.437-53.146 64.102-85.811 88.883-51.712 39.014-116.019 64.205-186.778 72.909-8.806 1.126-58.982 2.253-65.536 1.434zM764.928 387.584c-26.112-3.891-46.592-10.445-70.963-22.63-6.656-3.379-13.414-6.963-14.848-7.987-1.536-0.922-5.018-3.379-7.885-5.222-12.8-8.602-21.504-15.77-34.304-28.672-15.053-15.053-22.528-24.474-34.611-43.315-9.421-14.848-21.402-44.134-25.702-62.874-5.325-23.245-5.734-26.419-5.734-53.555 0-22.63 0.307-27.75 2.253-38.707 8.602-47.206 29.491-87.45 62.874-121.037 19.149-19.354 33.178-29.696 56.422-41.984 56.422-29.594 126.362-33.587 185.446-10.65 35.43 13.824 67.072 35.942 90.112 62.976 20.48 24.166 31.744 43.622 44.032 76.39 4.813 12.493 9.626 37.376 11.162 56.832 5.632 71.168-25.19 143.667-80.691 189.85-31.744 26.419-69.53 43.52-110.49 50.176-16.077 2.662-51.098 2.867-67.072 0.41zM847.77 267.162l51.2 51.098 26.624-26.522 26.624-26.624-50.688-50.688c-27.853-27.853-50.586-50.995-50.586-51.61 0-0.512 22.733-23.757 50.381-51.405l50.483-50.483-53.248-53.248-101.888 101.888-101.888-101.888-53.248 53.248 101.888 101.888-101.888 101.888 53.248 53.248 101.888-101.888 51.098 51.098zM281.19 280.269c-1.126-1.946-4.915-18.637-6.246-28.16-1.946-13.722-1.946-39.117 0-52.531 4.403-29.389 14.746-55.398 32.666-81.818 8.090-12.083 31.642-35.635 44.646-44.851 21.606-15.155 50.074-26.931 76.288-31.539 18.842-3.379 45.67-3.379 64.512 0 11.674 2.048 35.328 8.806 39.322 11.264 1.126 0.717 0.717 2.662-2.253 10.445-24.781 66.253-23.962 138.957 2.253 205.619 2.355 5.939 4.198 11.059 4.198 11.571 0 1.024-254.669 1.126-255.386 0z" />
<glyph unicode="&#xe909;" glyph-name="bold" data-tags="bold" d="M142.336 448v-510.976l475.648 0.512 15.872 2.867c70.554 12.902 125.952 40.96 169.472 85.811 20.787 21.504 35.635 42.291 49.152 69.018 15.36 30.31 23.552 58.163 27.75 94.31 2.15 18.534 1.536 66.97-1.126 83.354-7.578 47.821-23.040 87.962-47.309 122.778-18.944 27.136-42.291 50.278-68.915 68.198-4.813 3.277-8.806 5.939-9.011 6.144-0.102 0.102 3.584 3.174 8.192 6.656 12.902 9.83 34.918 32.563 45.978 47.309 26.522 35.533 42.291 75.264 49.664 125.235 2.56 17.306 2.56 61.44 0.102 78.848-4.506 30.822-12.288 56.013-24.883 81.306-14.234 28.672-29.491 49.766-50.688 70.246-46.080 44.646-105.882 71.27-174.899 77.824-13.414 1.331-49.971 1.536-240.435 1.536h-224.563v-510.976zM559.616 732.467c30.822-7.066 48.435-22.938 54.989-49.766 1.741-7.066 2.15-12.083 2.15-24.269 0-16.896-1.434-25.19-6.246-37.683-7.68-19.866-24.166-35.021-46.797-43.008-15.462-5.427-21.504-5.837-105.677-5.837h-77.107v162.918l85.811-0.41c73.523-0.307 86.733-0.614 92.877-1.946zM566.579 345.805c25.702-5.734 42.598-16.589 54.784-35.226 9.626-14.95 14.848-31.13 16.486-52.019 1.638-20.275-0.922-36.557-7.987-51.712-9.626-20.378-25.395-33.69-47.718-40.243-17.51-5.222-19.149-5.325-113.254-5.325h-87.962v187.494l87.859-0.307c86.118-0.41 87.962-0.41 97.792-2.662z" />
<glyph unicode="&#xe90a;" glyph-name="box" data-tags="box" d="M0 448v-512h1024v1024h-324.608l-0.205-310.17-0.307-310.17-92.16 53.248c-50.688 29.286-92.877 53.453-93.696 53.76-0.819 0.205-43.52-23.859-94.72-53.453l-93.184-53.76-0.307 310.272-0.205 310.272h-324.608v-512z" />
<glyph unicode="&#xe90b;" glyph-name="boxes" data-tags="boxes" d="M300.032 748.032v-211.968h423.936v423.936h-134.144l-0.205-128.41-0.307-128.307-38.4 22.221-38.4 22.323-4.096-2.253c-2.253-1.229-19.456-11.162-38.195-21.914-18.739-10.854-34.509-19.661-35.021-19.661-0.717 0-1.024 45.261-1.024 128v128h-134.144v-211.968zM0 147.456v-211.456h423.936v422.912h-134.144v-128c0-70.349-0.205-128-0.41-128s-17.51 9.933-38.502 22.016c-20.89 12.083-38.4 22.016-38.912 22.016s-18.022-9.933-38.912-22.016c-20.89-12.083-38.195-22.016-38.502-22.016-0.205 0-0.41 57.651-0.41 128v128h-134.144v-211.456zM601.088 147.456v-211.456h422.912v422.912h-134.144l-0.205-128-0.307-127.898-37.888 21.914c-20.787 12.083-38.298 22.016-38.912 22.016-0.512 0-18.022-9.933-38.912-21.914l-37.888-22.016-0.307 128-0.205 127.898h-134.144v-211.456z" />
<glyph unicode="&#xe90c;" glyph-name="boxes-plus" data-tags="boxes-plus" d="M270.541 769.331l0.307-190.771 380.416-0.512v381.952h-120.832v-115.2c0-63.386-0.205-115.2-0.512-115.2s-15.77 8.806-34.304 19.456c-18.534 10.752-34.099 19.456-34.611 19.456-0.922 0-5.632-2.662-48.333-27.443-9.83-5.632-18.739-10.65-19.661-10.957-1.741-0.717-1.843 5.222-1.843 114.586v115.302h-120.832l0.205-190.669zM0 228.864v-190.464h381.952v380.928h-120.832v-115.2c0-63.386-0.307-115.2-0.819-115.2-0.41 0-3.994 1.843-7.885 4.198-3.994 2.253-9.011 5.222-11.264 6.451-4.403 2.56-40.755 23.552-46.592 27.034l-3.584 2.15-14.336-8.294c-38.502-22.221-54.784-31.539-55.296-31.539-0.307 0-0.512 51.814-0.512 115.2v115.2h-120.832v-190.464zM540.672 354.099v-65.331l7.987 13.926c25.498 44.237 58.778 78.541 101.274 104.346 9.216 5.632 11.162 7.168 11.366 9.523l0.307 2.765h-120.934v-65.229zM764.826 387.584c-55.194-8.090-105.165-35.738-141.107-78.336-26.419-31.13-43.827-69.12-50.995-111.104-2.56-15.155-2.662-55.398 0-70.349 6.861-40.141 22.426-75.264 47.411-107.11 13.414-16.998 36.454-37.274 57.242-50.381 26.829-16.896 65.331-30.208 95.334-33.075 10.547-0.922 38.707-0.922 49.050 0.102 15.053 1.434 37.888 6.758 53.555 12.595 70.042 25.805 123.802 85.504 141.517 157.082 2.56 10.445 3.482 14.95 5.632 28.672 1.434 8.499 1.741 37.376 0.614 48.333-5.632 53.453-28.16 101.274-65.126 138.65-29.594 29.798-63.283 49.050-105.779 60.416-24.474 6.554-60.518 8.397-87.347 4.506zM834.56 272.384v-72.192h144.384v-74.752h-144.384v-144.384h-74.752l-0.205 71.987-0.307 71.885-143.872 0.512v74.752l143.872 0.512 0.307 71.987 0.205 71.885h74.752v-72.192z" />
<glyph unicode="&#xe90d;" glyph-name="boxes-times" data-tags="boxes-times" d="M270.541 769.331l0.307-190.771 380.416-0.512v381.952h-120.832v-115.2c0-63.386-0.205-115.2-0.512-115.2s-15.77 8.806-34.304 19.456c-18.534 10.752-34.099 19.456-34.611 19.456-0.922 0-5.632-2.662-48.333-27.443-9.83-5.632-18.739-10.65-19.661-10.957-1.741-0.717-1.843 5.222-1.843 114.586v115.302h-120.832l0.205-190.669zM0 228.864v-190.464h381.952v380.928h-120.832v-115.2c0-63.386-0.307-115.2-0.819-115.2-0.41 0-3.994 1.843-7.885 4.198-3.994 2.253-9.011 5.222-11.264 6.451-4.403 2.56-40.755 23.552-46.592 27.034l-3.584 2.15-14.336-8.294c-38.502-22.221-54.784-31.539-55.296-31.539-0.307 0-0.512 51.814-0.512 115.2v115.2h-120.832v-190.464zM540.672 354.099v-65.331l7.987 13.926c25.498 44.237 58.778 78.541 101.274 104.346 9.216 5.632 11.162 7.168 11.366 9.523l0.307 2.765h-120.934v-65.229zM764.928 387.584c-26.112-3.891-46.592-10.445-70.963-22.63-6.656-3.379-13.414-6.963-14.848-7.987-1.536-0.922-5.018-3.379-7.885-5.222-12.8-8.602-21.504-15.77-34.304-28.672-15.053-15.053-22.528-24.474-34.611-43.315-9.421-14.848-21.402-44.134-25.702-62.874-5.325-23.245-5.734-26.419-5.734-53.555 0-22.63 0.307-27.75 2.253-38.707 8.602-47.206 29.491-87.45 62.874-121.037 19.149-19.354 33.178-29.696 56.422-41.984 56.422-29.594 126.362-33.587 185.446-10.65 35.43 13.824 67.072 35.942 90.112 62.976 20.48 24.166 31.744 43.622 44.032 76.39 4.813 12.493 9.626 37.376 11.162 56.832 5.632 71.168-25.19 143.667-80.691 189.85-31.744 26.419-69.53 43.52-110.49 50.176-16.077 2.662-51.098 2.867-67.072 0.41zM847.77 267.162l51.2 51.098 26.624-26.522 26.624-26.624-50.688-50.688c-27.853-27.853-50.586-50.995-50.586-51.61 0-0.512 22.733-23.757 50.381-51.405l50.483-50.483-53.248-53.248-101.888 101.888-101.888-101.888-53.248 53.248 101.888 101.888-101.888 101.888 53.248 53.248 101.888-101.888 51.098 51.098z" />
<glyph unicode="&#xe90e;" glyph-name="box-plus" data-tags="box-plus" d="M0 499.2v-460.8h540.57l-3.174 6.861c-28.57 63.078-33.075 136.090-12.493 202.547 22.835 73.728 75.674 135.578 145.715 170.701 47.514 23.757 104.858 33.792 158.515 27.443 29.082-3.379 57.344-10.957 82.33-22.016l10.138-4.506v540.57h-291.84v-279.040c0-153.498-0.307-279.040-0.614-279.040-0.512 0-66.765 37.99-91.034 52.224-4.506 2.662-14.643 8.499-22.528 13.005-7.885 4.608-23.142 13.414-33.997 19.661-10.752 6.246-20.070 11.366-20.582 11.366s-18.227-9.933-39.219-22.118c-21.094-12.186-47.514-27.443-58.778-33.894-11.264-6.554-26.419-15.36-33.792-19.558-27.136-15.667-33.997-19.558-35.635-20.275-1.638-0.614-1.741 17.92-1.741 278.528v279.142h-291.84v-460.8zM764.826 387.584c-55.194-8.090-105.165-35.738-141.107-78.336-26.419-31.13-43.827-69.12-50.995-111.104-2.56-15.155-2.662-55.398 0-70.349 6.861-40.141 22.426-75.264 47.411-107.11 13.414-16.998 36.454-37.274 57.242-50.381 26.829-16.896 65.331-30.208 95.334-33.075 10.547-0.922 38.707-0.922 49.050 0.102 15.053 1.434 37.888 6.758 53.555 12.595 70.042 25.805 123.802 85.504 141.517 157.082 2.56 10.445 3.482 14.95 5.632 28.672 1.434 8.499 1.741 37.376 0.614 48.333-5.632 53.453-28.16 101.274-65.126 138.65-29.594 29.798-63.283 49.050-105.779 60.416-24.474 6.554-60.518 8.397-87.347 4.506zM834.56 272.384v-72.192h144.384v-74.752h-144.384v-144.384h-74.752l-0.205 71.987-0.307 71.885-143.872 0.512v74.752l143.872 0.512 0.307 71.987 0.205 71.885h74.752v-72.192z" />
<glyph unicode="&#xe90f;" glyph-name="box-times" data-tags="box-times" d="M0 499.2v-460.8h540.57l-3.174 6.861c-28.57 63.078-33.075 136.090-12.493 202.547 22.835 73.728 75.674 135.578 145.715 170.701 47.514 23.757 104.858 33.792 158.515 27.443 29.082-3.379 57.344-10.957 82.33-22.016l10.138-4.506v540.57h-291.84v-279.040c0-153.498-0.307-279.040-0.614-279.040-0.512 0-66.765 37.99-91.034 52.224-4.506 2.662-14.643 8.499-22.528 13.005-7.885 4.608-23.142 13.414-33.997 19.661-10.752 6.246-20.070 11.366-20.582 11.366s-18.227-9.933-39.219-22.118c-21.094-12.186-47.514-27.443-58.778-33.894-11.264-6.554-26.419-15.36-33.792-19.558-27.136-15.667-33.997-19.558-35.635-20.275-1.638-0.614-1.741 17.92-1.741 278.528v279.142h-291.84v-460.8zM764.928 387.584c-26.112-3.891-46.592-10.445-70.963-22.63-6.656-3.379-13.414-6.963-14.848-7.987-1.536-0.922-5.018-3.379-7.885-5.222-12.8-8.602-21.504-15.77-34.304-28.672-15.053-15.053-22.528-24.474-34.611-43.315-9.421-14.848-21.402-44.134-25.702-62.874-5.325-23.245-5.734-26.419-5.734-53.555 0-22.63 0.307-27.75 2.253-38.707 8.602-47.206 29.491-87.45 62.874-121.037 19.149-19.354 33.178-29.696 56.422-41.984 56.422-29.594 126.362-33.587 185.446-10.65 35.43 13.824 67.072 35.942 90.112 62.976 20.48 24.166 31.744 43.622 44.032 76.39 4.813 12.493 9.626 37.376 11.162 56.832 5.632 71.168-25.19 143.667-80.691 189.85-31.744 26.419-69.53 43.52-110.49 50.176-16.077 2.662-51.098 2.867-67.072 0.41zM847.77 267.162l51.2 51.098 26.624-26.522 26.624-26.624-50.688-50.688c-27.853-27.853-50.586-50.995-50.586-51.61 0-0.512 22.733-23.757 50.381-51.405l50.483-50.483-53.248-53.248-101.888 101.888-101.888-101.888-53.248 53.248 101.888 101.888-101.888 101.888 53.248 53.248 101.888-101.888 51.098 51.098z" />
<glyph unicode="&#xe910;" glyph-name="briefcase" data-tags="briefcase" d="M230.4 786.432v-95.744l-229.888-0.512-0.307-79.36-0.205-79.36 254.669-31.539c140.186-17.306 255.898-31.539 257.331-31.539s117.146 14.234 257.331 31.539l254.669 31.539-0.205 79.36-0.307 79.36-229.888 0.512v191.488h-563.2v-95.744zM676.659 738.099l0.205-48.435h-329.728v97.28l329.216-0.512 0.307-48.333zM0.205 246.477l0.307-234.189h1022.976l0.307 233.37c0.102 128.41-0.102 233.779-0.512 234.086-0.512 0.41-40.653-4.301-89.395-10.342s-163.533-20.378-255.181-31.642l-166.707-20.685-108.237 13.414c-59.597 7.373-173.568 21.504-253.235 31.334s-146.125 18.125-147.763 18.432l-2.765 0.512 0.205-234.291z" />
<glyph unicode="&#xe911;" glyph-name="briefcase-plus" data-tags="briefcase-plus" d="M207.667 804.147l-0.307-86.323-207.36-0.512v-142.95l21.709-2.765c19.661-2.458 68.608-8.602 220.467-27.341 27.648-3.379 81.51-10.035 119.808-14.848 38.298-4.71 76.186-9.421 84.275-10.342 16.794-2.048 3.174-3.277 113.357 10.342 38.298 4.71 92.262 11.469 119.808 14.848 151.347 18.739 200.806 24.883 220.467 27.341l21.709 2.765-0.205 71.168-0.307 71.27-206.336 0.512-0.205 86.323-0.307 86.221-506.368 0.512-0.205-86.221zM609.28 760.32v-43.008h-296.96v86.016h296.96v-43.008zM0 317.747v-210.739h517.427l-0.717 4.403c-7.168 43.418-5.837 83.149 4.096 122.061 20.378 79.974 75.059 147.558 149.811 185.037 47.514 23.757 104.858 33.792 158.515 27.443 29.082-3.379 57.344-10.957 82.33-22.016l10.138-4.506v108.442h-2.253c-2.253 0-9.216-0.819-126.771-15.462-36.352-4.506-86.323-10.65-111.104-13.722-124.518-15.36-203.674-25.19-211.661-26.214-7.373-1.024-11.264-0.922-22.016 0.512-11.878 1.536-107.418 13.312-211.763 26.214-100.454 12.39-193.229 23.859-213.709 26.522l-22.323 2.765v-210.739zM764.826 387.584c-55.194-8.090-105.165-35.738-141.107-78.336-26.419-31.13-43.827-69.12-50.995-111.104-2.56-15.155-2.662-55.398 0-70.349 6.861-40.141 22.426-75.264 47.411-107.11 13.414-16.998 36.454-37.274 57.242-50.381 26.829-16.896 65.331-30.208 95.334-33.075 10.547-0.922 38.707-0.922 49.050 0.102 15.053 1.434 37.888 6.758 53.555 12.595 70.042 25.805 123.802 85.504 141.517 157.082 2.56 10.445 3.482 14.95 5.632 28.672 1.434 8.499 1.741 37.376 0.614 48.333-5.632 53.453-28.16 101.274-65.126 138.65-29.594 29.798-63.283 49.050-105.779 60.416-24.474 6.554-60.518 8.397-87.347 4.506zM834.56 272.384v-72.192h144.384v-74.752h-144.384v-144.384h-74.752l-0.205 71.987-0.307 71.885-143.872 0.512v74.752l143.872 0.512 0.307 71.987 0.205 71.885h74.752v-72.192z" />
<glyph unicode="&#xe912;" glyph-name="briefcase-times" data-tags="briefcase-times" d="M207.667 804.147l-0.307-86.323-207.36-0.512v-142.95l21.709-2.765c19.661-2.458 68.608-8.602 220.467-27.341 27.648-3.379 81.51-10.035 119.808-14.848 38.298-4.71 76.186-9.421 84.275-10.342 16.794-2.048 3.174-3.277 113.357 10.342 38.298 4.71 92.262 11.469 119.808 14.848 151.347 18.739 200.806 24.883 220.467 27.341l21.709 2.765-0.205 71.168-0.307 71.27-206.336 0.512-0.205 86.323-0.307 86.221-506.368 0.512-0.205-86.221zM609.28 760.32v-43.008h-296.96v86.016h296.96v-43.008zM0 317.747v-210.739h517.427l-0.717 4.403c-7.168 43.418-5.837 83.149 4.096 122.061 20.378 79.974 75.059 147.558 149.811 185.037 47.514 23.757 104.858 33.792 158.515 27.443 29.082-3.379 57.344-10.957 82.33-22.016l10.138-4.506v108.442h-2.253c-2.253 0-9.216-0.819-126.771-15.462-36.352-4.506-86.323-10.65-111.104-13.722-124.518-15.36-203.674-25.19-211.661-26.214-7.373-1.024-11.264-0.922-22.016 0.512-11.878 1.536-107.418 13.312-211.763 26.214-100.454 12.39-193.229 23.859-213.709 26.522l-22.323 2.765v-210.739zM764.928 387.584c-26.112-3.891-46.592-10.445-70.963-22.63-6.656-3.379-13.414-6.963-14.848-7.987-1.536-0.922-5.018-3.379-7.885-5.222-12.8-8.602-21.504-15.77-34.304-28.672-15.053-15.053-22.528-24.474-34.611-43.315-9.421-14.848-21.402-44.134-25.702-62.874-5.325-23.245-5.734-26.419-5.734-53.555 0-22.63 0.307-27.75 2.253-38.707 8.602-47.206 29.491-87.45 62.874-121.037 19.149-19.354 33.178-29.696 56.422-41.984 56.422-29.594 126.362-33.587 185.446-10.65 35.43 13.824 67.072 35.942 90.112 62.976 20.48 24.166 31.744 43.622 44.032 76.39 4.813 12.493 9.626 37.376 11.162 56.832 5.632 71.168-25.19 143.667-80.691 189.85-31.744 26.419-69.53 43.52-110.49 50.176-16.077 2.662-51.098 2.867-67.072 0.41zM847.77 267.162l51.2 51.098 26.624-26.522 26.624-26.624-50.688-50.688c-27.853-27.853-50.586-50.995-50.586-51.61 0-0.512 22.733-23.757 50.381-51.405l50.483-50.483-53.248-53.248-101.888 101.888-101.888-101.888-53.248 53.248 101.888 101.888-101.888 101.888 53.248 53.248 101.888-101.888 51.098 51.098z" />
<glyph unicode="&#xe913;" glyph-name="calendar" data-tags="calendar" d="M247.296 958.362c-15.974-2.867-35.942-15.053-46.285-28.262-6.349-8.192-8.704-11.981-11.981-20.173-5.427-13.517-5.734-17.101-5.734-74.24v-52.736l-58.573-0.41c-64-0.41-62.976-0.307-76.8-6.656-23.040-10.445-37.478-27.853-45.978-54.989-0.922-2.97-1.434-17.408-1.638-51.507l-0.41-47.309 1023.59 0.512v46.080c0 34.406-0.307 47.411-1.331 51.2-4.096 15.77-11.776 29.389-22.528 39.834-7.68 7.578-12.902 11.162-22.733 15.77-14.336 6.656-13.619 6.656-71.885 7.066l-52.941 0.41-0.41 56.013c-0.307 49.869-0.512 56.73-2.15 62.157-4.506 15.258-14.643 30.822-26.522 40.55-3.482 2.867-10.957 7.373-16.589 10.138-13.926 6.861-23.962 8.602-45.568 7.885-18.432-0.614-24.371-1.946-37.376-8.397-21.402-10.547-36.25-28.672-42.086-51.302l-2.56-10.138 0.102-53.453v-53.555h-322.56v53.658c0 53.555 0 53.658-2.56 63.488-5.837 23.245-20.48 40.755-43.008 51.814-7.578 3.686-12.595 5.427-19.354 6.656-11.264 1.946-33.075 1.843-44.134-0.102zM0.512 547.021c-0.307-0.614-0.41-123.597-0.205-273.101 0.307-306.483-0.614-274.842 8.397-293.376 10.854-22.118 31.232-37.683 56.32-43.008 10.854-2.253 883.098-2.253 893.952 0 25.19 5.325 45.261 20.685 56.32 43.008 9.011 18.432 8.090-13.312 8.397 294.707l0.307 273.101h-511.488c-409.293 0-511.693-0.307-512-1.331zM295.936 368.128v-75.776h-193.536v151.552h193.536v-75.776zM609.28 368.128v-75.776h-193.536v151.552h193.536v-75.776zM921.6 368.128v-75.776h-193.536v151.552h193.536v-75.776zM295.936 114.176v-75.776h-193.536v151.552h193.536v-75.776zM609.28 114.176v-75.776h-193.536v151.552h193.536v-75.776zM921.6 114.176v-75.776h-193.536v151.552h193.536v-75.776z" />
<glyph unicode="&#xe914;" glyph-name="calendar-plus" data-tags="calendar-plus" d="M247.296 958.362c-15.974-2.867-35.942-15.053-46.285-28.262-6.349-8.192-8.704-11.981-11.981-20.173-5.427-13.517-5.734-17.101-5.734-74.24v-52.736l-58.573-0.41c-64-0.41-62.976-0.307-76.8-6.656-23.040-10.445-37.478-27.853-45.978-54.989-0.922-2.97-1.434-17.408-1.638-51.507l-0.41-47.309 1023.59 0.512v46.080c0 34.406-0.307 47.411-1.331 51.2-4.096 15.77-11.776 29.389-22.528 39.834-7.68 7.578-12.902 11.162-22.733 15.77-14.336 6.656-13.619 6.656-71.885 7.066l-52.941 0.41-0.41 56.013c-0.307 49.869-0.512 56.73-2.15 62.157-4.506 15.258-14.643 30.822-26.522 40.55-3.482 2.867-10.957 7.373-16.589 10.138-13.926 6.861-23.962 8.602-45.568 7.885-18.432-0.614-24.371-1.946-37.376-8.397-21.402-10.547-36.25-28.672-42.086-51.302l-2.56-10.138 0.102-53.453v-53.555h-322.56v53.658c0 53.555 0 53.658-2.56 63.488-5.837 23.245-20.48 40.755-43.008 51.814-7.578 3.686-12.595 5.427-19.354 6.656-11.264 1.946-33.075 1.843-44.134-0.102zM0.512 547.021c-0.307-0.614-0.41-123.597-0.205-273.101 0.307-306.483-0.614-274.842 8.397-293.376 10.854-22.118 31.232-37.683 56.32-43.008 10.854-2.253 883.098-2.253 893.952 0 25.19 5.325 45.261 20.685 56.32 43.008 9.011 18.432 8.090-13.312 8.397 294.707l0.307 273.101h-511.488c-409.293 0-511.693-0.307-512-1.331zM551.117 348.979l0.307-70.451 139.776-0.512v-72.704l-139.776-0.512-0.307-70.451-0.205-70.349-36.659 0.205-36.557 0.307-0.307 70.451-0.205 70.349h-140.288v72.704h140.288v69.939c0 38.502 0.307 70.349 0.717 70.656 0.307 0.41 16.896 0.717 36.864 0.717h36.147l0.205-70.349z" />
<glyph unicode="&#xe915;" glyph-name="calendar-times" data-tags="calendar-times" d="M247.296 958.362c-15.974-2.867-35.942-15.053-46.285-28.262-6.349-8.192-8.704-11.981-11.981-20.173-5.427-13.517-5.734-17.101-5.734-74.24v-52.736l-58.573-0.41c-64-0.41-62.976-0.307-76.8-6.656-23.040-10.445-37.478-27.853-45.978-54.989-0.922-2.97-1.434-17.408-1.638-51.507l-0.41-47.309 1023.59 0.512v46.080c0 34.406-0.307 47.411-1.331 51.2-4.096 15.77-11.776 29.389-22.528 39.834-7.68 7.578-12.902 11.162-22.733 15.77-14.336 6.656-13.619 6.656-71.885 7.066l-52.941 0.41-0.41 56.013c-0.307 49.869-0.512 56.73-2.15 62.157-4.506 15.258-14.643 30.822-26.522 40.55-3.482 2.867-10.957 7.373-16.589 10.138-13.926 6.861-23.962 8.602-45.568 7.885-18.432-0.614-24.371-1.946-37.376-8.397-21.402-10.547-36.25-28.672-42.086-51.302l-2.56-10.138 0.102-53.453v-53.555h-322.56v53.658c0 53.555 0 53.658-2.56 63.488-5.837 23.245-20.48 40.755-43.008 51.814-7.578 3.686-12.595 5.427-19.354 6.656-11.264 1.946-33.075 1.843-44.134-0.102zM0.512 547.021c-0.307-0.614-0.41-123.597-0.205-273.101 0.307-306.483-0.614-274.842 8.397-293.376 10.854-22.118 31.232-37.683 56.32-43.008 10.854-2.253 883.098-2.253 893.952 0 25.19 5.325 45.261 20.685 56.32 43.008 9.011 18.432 8.090-13.312 8.397 294.707l0.307 273.101h-511.488c-409.293 0-511.693-0.307-512-1.331zM465.613 343.347l49.459-49.459 99.328 99.328 25.805-25.907 25.907-25.805-99.328-99.328 49.459-49.459c27.136-27.136 49.357-49.869 49.357-50.381 0-0.614-11.571-12.595-25.6-26.624l-25.6-25.6-99.84 99.84-99.328-99.328-51.712 51.712 99.328 99.328-99.328 99.328 25.805 25.805c14.234 14.234 26.112 25.907 26.419 25.907s22.733-22.221 49.869-49.357z" />
<glyph unicode="&#xe916;" glyph-name="camera" data-tags="camera" d="M369.971 878.387c-1.126-1.638-25.395-43.52-54.067-93.184l-52.122-90.419h-263.782v-680.96h1024v680.96l-264.602 0.512-106.906 185.344-280.678 0.512-1.843-2.765zM554.496 633.446c92.979-15.155 168.858-70.861 209.92-154.214 29.798-60.416 36.864-127.488 20.378-193.229-5.018-19.866-11.469-36.966-21.504-57.139-14.336-28.57-29.594-49.766-52.634-72.704-39.731-39.834-88.064-65.741-142.95-76.698-22.221-4.403-34.304-5.53-56.422-5.427-56.218 0.307-107.008 15.462-153.293 45.67-16.896 10.957-29.594 21.402-44.646 36.454-43.725 43.622-70.451 96.666-79.974 158.822-3.277 21.197-3.277 59.392 0 80.691 7.373 47.821 26.214 92.57 54.784 130.15 38.195 50.278 93.184 86.63 154.112 101.99 11.674 2.867 19.763 4.403 44.646 7.987 1.741 0.205 14.643 0.307 28.672 0.102 19.968-0.205 28.57-0.819 38.912-2.458zM874.803 634.88c17.306-4.506 32.154-16.589 40.243-32.768 11.571-23.45 7.066-52.019-11.264-70.144-13.107-12.902-26.214-18.432-44.032-18.432-18.227 0-30.413 5.12-43.725 18.33-19.149 19.149-23.552 45.67-11.571 70.554 7.066 14.746 23.245 28.058 39.629 32.461 7.168 1.843 23.45 1.946 30.72 0zM482.304 564.122c-96.87-14.541-170.189-91.341-180.122-188.723-5.632-54.579 12.083-112.333 47.514-154.726 37.376-44.749 89.19-71.27 148.48-75.878 25.088-2.048 55.091 1.843 80.486 10.342 53.248 17.818 97.792 56.73 122.266 106.803 24.781 50.79 28.672 106.189 11.162 159.334-25.19 76.595-92.672 132.506-172.237 142.848-15.565 2.048-44.032 2.048-57.549 0zM43.008 784.896v-39.936h196.608v79.872h-196.608v-39.936z" />
<glyph unicode="&#xe917;" glyph-name="camera-plus" data-tags="camera-plus" d="M369.971 878.387c-1.126-1.638-25.395-43.52-54.067-93.184l-52.122-90.419h-263.782v-680.96h1024v680.96l-264.602 0.512-106.906 185.344-280.678 0.512-1.843-2.765zM554.496 633.446c92.979-15.155 168.858-70.861 209.92-154.214 29.798-60.416 36.864-127.488 20.378-193.229-5.018-19.866-11.469-36.966-21.504-57.139-14.336-28.57-29.594-49.766-52.634-72.704-39.731-39.834-88.064-65.741-142.95-76.698-22.221-4.403-34.304-5.53-56.422-5.427-56.218 0.307-107.008 15.462-153.293 45.67-16.896 10.957-29.594 21.402-44.646 36.454-43.725 43.622-70.451 96.666-79.974 158.822-3.277 21.197-3.277 59.392 0 80.691 7.373 47.821 26.214 92.57 54.784 130.15 38.195 50.278 93.184 86.63 154.112 101.99 11.674 2.867 19.763 4.403 44.646 7.987 1.741 0.205 14.643 0.307 28.672 0.102 19.968-0.205 28.57-0.819 38.912-2.458zM874.803 634.88c17.306-4.506 32.154-16.589 40.243-32.768 11.571-23.45 7.066-52.019-11.264-70.144-13.107-12.902-26.214-18.432-44.032-18.432-18.227 0-30.413 5.12-43.725 18.33-19.149 19.149-23.552 45.67-11.571 70.554 7.066 14.746 23.245 28.058 39.629 32.461 7.168 1.843 23.45 1.946 30.72 0zM482.816 579.584c-28.672-3.891-54.17-12.186-79.872-26.214-54.374-29.491-95.027-82.125-110.080-142.234-5.222-20.89-6.554-32.256-6.554-55.808 0-27.546 2.867-46.182 10.445-69.632 16.794-51.61 51.712-95.642 98.304-123.802 25.805-15.565 50.381-24.474 84.173-30.413 11.981-2.15 55.091-1.843 68.096 0.512 45.773 8.090 83.251 26.112 116.122 55.808 14.848 13.312 34.304 36.864 41.779 50.278 11.469 20.582 15.053 28.365 21.197 46.592 4.301 12.288 5.734 18.534 8.909 36.352 2.867 15.667 3.072 50.381 0.512 66.56-8.294 51.917-31.744 96.87-68.71 131.891-34.714 32.87-78.438 53.658-126.259 60.109-14.131 1.843-43.725 1.843-58.061 0zM549.888 464.384v-71.68h143.36v-74.752h-143.36v-143.36l-2.253-0.512c-1.331-0.307-18.227-0.41-37.683-0.307l-35.328 0.307-0.307 71.987-0.205 71.885h-143.36v74.752h143.36v143.36h75.776v-71.68zM43.008 784.896v-39.936h196.608v79.872h-196.608v-39.936z" />
<glyph unicode="&#xe918;" glyph-name="camera-times" data-tags="camera-times" d="M369.971 878.387c-1.126-1.638-25.395-43.52-54.067-93.184l-52.122-90.419h-263.782v-680.96h1024v680.96l-264.602 0.512-106.906 185.344-280.678 0.512-1.843-2.765zM554.496 633.446c92.979-15.155 168.858-70.861 209.92-154.214 29.798-60.416 36.864-127.488 20.378-193.229-5.018-19.866-11.469-36.966-21.504-57.139-14.336-28.57-29.594-49.766-52.634-72.704-39.731-39.834-88.064-65.741-142.95-76.698-22.221-4.403-34.304-5.53-56.422-5.427-56.218 0.307-107.008 15.462-153.293 45.67-16.896 10.957-29.594 21.402-44.646 36.454-43.725 43.622-70.451 96.666-79.974 158.822-3.277 21.197-3.277 59.392 0 80.691 7.373 47.821 26.214 92.57 54.784 130.15 38.195 50.278 93.184 86.63 154.112 101.99 11.674 2.867 19.763 4.403 44.646 7.987 1.741 0.205 14.643 0.307 28.672 0.102 19.968-0.205 28.57-0.819 38.912-2.458zM874.803 634.88c17.306-4.506 32.154-16.589 40.243-32.768 11.571-23.45 7.066-52.019-11.264-70.144-13.107-12.902-26.214-18.432-44.032-18.432-18.227 0-30.413 5.12-43.725 18.33-19.149 19.149-23.552 45.67-11.571 70.554 7.066 14.746 23.245 28.058 39.629 32.461 7.168 1.843 23.45 1.946 30.72 0zM503.296 581.427c-58.88-2.867-111.718-26.317-152.166-67.584-18.33-18.637-30.208-35.226-41.677-58.163-26.317-52.531-30.618-114.381-11.878-171.418 16.794-51.098 52.634-95.642 99.123-123.29 71.27-42.189 161.587-41.882 232.141 0.922 28.774 17.408 53.76 41.574 72.499 70.042 14.029 21.402 26.829 52.326 31.846 76.8 13.517 66.355-1.741 132.096-43.315 186.266-2.867 3.686-10.445 12.186-16.998 18.944-31.232 31.949-72.294 54.272-115.507 62.976-15.974 3.277-39.834 5.222-54.067 4.506zM461.517 459.059l50.483-50.483 101.376 101.376 53.248-53.248-101.376-101.376 101.376-101.376-53.248-53.248-101.376 101.376-101.376-101.376-53.248 53.248 101.376 101.376-101.376 101.376 26.317 26.317c14.541 14.541 26.624 26.419 26.931 26.419s23.245-22.733 50.893-50.381zM43.008 784.896v-39.936h196.608v79.872h-196.608v-39.936z" />
<glyph unicode="&#xe919;" glyph-name="car" data-tags="car" d="M500.941 815.514c-4.096-0.512-12.8-2.048-19.354-3.584-74.547-16.691-143.565-74.752-194.048-163.226-7.885-13.722-20.070-38.093-26.419-52.429l-4.403-10.035h-10.854c-62.976 0-130.765-24.678-177.869-64.614-32.461-27.546-57.446-67.174-65.843-104.346-2.253-9.626-2.253-10.854-1.946-101.376l0.307-91.648 2.97-6.656c9.523-21.197 25.293-36.966 45.875-45.773 9.728-4.301 20.787-6.246 39.117-7.168l14.234-0.614-0.614 2.97c-0.307 1.638-1.229 8.602-1.843 15.565-2.867 27.443 3.584 57.037 17.613 81.613 18.944 33.075 49.357 56.525 86.426 66.765 8.704 2.355 25.088 4.403 35.84 4.403 50.893 0 96.768-26.726 122.266-71.168 14.029-24.576 20.48-54.17 17.613-81.715-0.614-6.861-1.536-13.722-1.843-15.258l-0.512-2.867h262.554l-0.512 2.867c-0.307 1.536-1.229 8.397-1.843 15.258-2.867 27.546 3.584 57.139 17.613 81.715 17.306 30.208 43.827 52.224 76.39 63.488 14.029 4.813 24.371 6.758 39.322 7.373 53.658 2.355 102.093-24.269 128.819-70.861 14.029-24.576 20.48-54.17 17.613-81.613-0.614-6.963-1.536-13.824-1.843-15.462l-0.512-2.765h20.582c19.456 0 20.582 0.102 20.582 1.946 0 1.331 1.024 2.048 3.174 2.56 1.741 0.307 6.042 1.843 9.523 3.379 25.907 11.366 44.237 33.792 49.869 61.030 1.843 8.909 1.946 15.872 1.946 136.602 0 73.216-0.41 135.987-1.024 147.968-4.813 94.515-26.419 179.405-59.597 234.291-19.456 32.256-40.55 52.019-66.048 61.747l-5.939 2.253-189.952 0.102c-104.448 0.102-193.331-0.205-197.427-0.717zM684.032 653.312v-129.536h-206.848c-158.003 0-206.848 0.307-206.848 1.229 0 3.994 13.517 36.966 24.166 58.982 10.752 22.323 16.486 32.461 29.798 52.634 15.155 22.938 28.877 39.731 48.845 59.802 26.010 26.010 49.459 43.52 77.107 57.549 32.051 16.179 57.344 23.552 97.075 28.16 1.741 0.205 33.178 0.512 69.939 0.614l66.765 0.102v-129.536zM852.48 779.571c36.045-12.186 66.97-49.459 90.624-108.851 11.981-30.106 20.685-62.566 27.034-100.352 2.662-15.667 5.734-39.322 5.734-43.725v-2.355l-246.784-0.717v259.379l115.2-0.614 8.192-2.765zM223.744 308.122c-1.126-0.205-4.608-0.922-7.68-1.536-16.486-3.379-36.147-13.005-49.664-24.474-51.405-43.622-54.17-122.061-5.939-169.062 8.294-8.192 17.92-14.848 30.208-20.992 30.413-15.258 68.608-15.258 99.43 0.205 13.005 6.554 23.45 14.131 32.563 23.654 22.118 23.142 32.87 52.019 31.334 84.378-2.048 46.285-30.822 85.299-74.957 101.99-12.083 4.506-18.33 5.632-35.84 5.939-9.523 0.205-18.33 0.205-19.456-0.102zM761.856 308.122c-12.595-2.15-19.149-4.096-30.003-8.806-53.862-23.347-80.998-84.582-62.566-140.595 9.933-29.901 30.618-52.941 60.826-67.482s67.174-14.131 97.587 1.024c13.005 6.554 23.45 14.131 32.563 23.654 22.118 23.142 32.87 52.019 31.334 84.378-2.048 46.285-30.822 85.299-74.957 101.99-11.981 4.506-18.432 5.632-35.328 5.939-9.318 0.205-18.022 0.205-19.456-0.102z" />
<glyph unicode="&#xe91a;" glyph-name="car-plus" data-tags="car-plus" d="M457.728 856.474c-83.558-7.987-158.822-69.837-211.149-173.466-4.301-8.397-9.421-19.354-11.469-24.166l-3.789-8.806-16.077-0.614c-30.925-1.229-59.494-7.373-89.6-19.251-61.030-24.166-107.827-73.216-122.573-128.205l-3.072-11.674 0.205-83.354 0.307-83.354 4.198-8.704c2.355-4.813 6.349-11.469 8.909-14.95 8.499-11.264 25.088-22.528 38.707-26.419 6.656-1.843 22.733-3.686 32.768-3.686h7.373l-0.717 3.277c-11.162 56.013 18.944 114.995 70.758 138.65 18.125 8.294 33.69 11.674 53.555 11.674 26.010 0 48.333-6.656 70.451-21.094 41.472-27.034 63.898-80.998 53.862-129.638l-0.614-2.867h172.237v6.451c0.102 22.016 6.554 56.525 15.36 82.125 19.968 57.754 57.037 106.496 108.134 142.131 37.888 26.419 86.835 44.237 133.939 48.742 14.336 1.434 41.472 1.434 54.989 0.102 18.534-1.946 41.882-6.554 55.091-10.854 11.981-3.994 25.805-9.114 31.642-11.776 3.482-1.638 6.656-2.97 6.861-2.97 0.922 0 0.512 55.91-0.512 72.192-3.994 61.133-15.36 117.043-32.973 161.28-21.606 54.374-49.971 87.757-83.046 98.099-4.813 1.536-21.811 1.741-169.677 1.843-90.931 0.102-168.653-0.307-174.080-0.717zM615.424 710.246v-116.838h-185.856c-177.971 0-185.856 0.102-185.856 1.843 0 1.024 2.048 7.066 4.506 13.517 21.914 57.651 50.483 103.219 88.269 140.8 35.84 35.635 74.342 58.47 117.146 69.53 25.805 6.656 33.178 7.168 107.827 7.578l53.965 0.307v-116.736zM764.109 824.525c43.418-12.493 80.077-67.379 101.171-151.245 5.53-22.016 14.438-76.186 12.902-78.643-0.205-0.41-50.278-0.922-111.104-1.024l-110.694-0.41v233.882l50.995-0.41c43.52-0.41 51.712-0.717 56.73-2.15zM764.826 489.984c-55.194-8.090-105.165-35.738-141.107-78.336-26.419-31.13-43.827-69.12-50.995-111.104-2.56-15.155-2.662-55.398 0-70.349 6.861-40.141 22.426-75.264 47.411-107.11 13.414-16.998 36.454-37.274 57.242-50.381 26.829-16.896 65.331-30.208 95.334-33.075 10.547-0.922 38.707-0.922 49.050 0.102 15.053 1.434 37.888 6.758 53.555 12.595 70.042 25.805 123.802 85.504 141.517 157.082 2.56 10.445 3.482 14.95 5.632 28.672 1.434 8.499 1.741 37.376 0.614 48.333-5.632 53.453-28.16 101.274-65.126 138.65-29.594 29.798-63.283 49.050-105.779 60.416-24.474 6.554-60.518 8.397-87.347 4.506zM834.56 374.784v-72.192h144.384v-74.752h-144.384v-144.384h-74.752l-0.205 71.987-0.307 71.885-143.872 0.512v74.752l143.872 0.512 0.307 71.987 0.205 71.885h74.752v-72.192zM197.837 398.746c-7.168-1.229-19.661-5.53-27.341-9.421-21.197-10.547-39.219-29.389-48.435-50.688-5.939-13.517-7.578-20.89-8.090-37.069-1.024-27.853 5.53-48.128 22.016-68.813 24.883-30.925 66.048-44.749 105.37-35.226 32.358 7.782 59.187 32.051 71.475 64.614 5.53 14.643 7.475 36.762 4.608 52.736-3.789 21.914-14.131 40.858-31.027 56.934-12.698 12.083-27.853 20.582-45.568 25.6-6.963 1.946-34.918 2.867-43.008 1.331z" />
<glyph unicode="&#xe91b;" glyph-name="car-rent" data-tags="car-rent" d="M500.941 815.514c-4.096-0.512-12.8-2.048-19.354-3.584-74.547-16.691-143.565-74.752-194.048-163.226-7.885-13.722-20.070-38.093-26.419-52.429l-4.403-10.035h-10.854c-62.976 0-130.765-24.678-177.869-64.614-32.461-27.546-57.446-67.174-65.843-104.346-2.253-9.626-2.253-10.854-1.946-101.376l0.307-91.648 2.97-6.656c9.523-21.197 25.293-36.966 45.875-45.773 9.728-4.301 20.787-6.246 39.117-7.168l14.234-0.614-0.614 2.97c-0.307 1.638-1.229 8.602-1.843 15.565-2.867 27.443 3.584 57.037 17.613 81.613 13.722 23.859 32.666 42.291 56.32 54.682 15.565 8.192 28.57 12.493 45.466 14.95 71.168 10.445 138.547-34.202 156.57-103.629 1.126-4.71 2.355-8.499 2.662-8.499s9.011 8.499 19.456 18.944l18.944 18.944 36.352-36.352 18.227 18.227c9.933 9.933 18.637 18.125 19.149 18.125s9.114-8.090 18.944-17.92l17.92-17.92 18.739 18.125 18.842 18.022 36.147-36.147 18.432 18.432c10.138 10.138 18.842 18.33 19.456 18.33 0.512-0.102 3.891-0.102 7.373 0l6.349 0.102 3.789 6.349c9.011 15.053 24.064 31.642 37.069 41.062 16.077 11.571 37.069 20.89 56.013 24.781 11.264 2.355 31.846 3.072 44.134 1.638 53.146-6.554 98.611-41.677 118.272-91.546 7.066-17.92 10.24-41.267 8.294-61.44-0.614-6.861-1.434-13.517-1.843-14.746l-0.614-2.355h19.046c17.92 0 19.046 0.102 19.046 1.946 0 1.331 1.024 2.048 3.174 2.56 1.741 0.307 6.042 1.843 9.523 3.379 25.907 11.366 44.237 33.792 49.869 61.030 1.843 8.909 1.946 15.872 1.946 136.602 0 73.216-0.41 135.987-1.024 147.968-4.813 94.515-26.419 179.405-59.597 234.291-19.456 32.256-40.55 52.019-66.048 61.747l-5.939 2.253-189.952 0.102c-104.448 0.102-193.331-0.205-197.427-0.717zM684.032 653.312v-129.536h-206.848c-158.003 0-206.848 0.307-206.848 1.229 0 3.994 13.517 36.966 24.166 58.982 10.752 22.323 16.486 32.461 29.798 52.634 15.155 22.938 28.877 39.731 48.845 59.802 26.010 26.010 49.459 43.52 77.107 57.549 32.051 16.179 57.344 23.552 97.075 28.16 1.741 0.205 33.178 0.512 69.939 0.614l66.765 0.102v-129.536zM852.48 779.571c36.045-12.186 66.97-49.459 90.624-108.851 11.981-30.106 20.685-62.566 27.034-100.352 2.662-15.667 5.734-39.322 5.734-43.725v-2.355l-246.784-0.717v259.379l115.2-0.614 8.192-2.765zM768 309.146c-26.829-4.915-47.514-15.36-65.434-33.075-9.626-9.523-19.661-23.757-24.269-34.406l-2.867-6.656h-32.87l-17.92-17.92c-9.83-9.83-18.637-17.92-19.456-17.92s-9.421 7.987-19.149 17.613l-17.715 17.715-17.715-17.715c-9.728-9.626-18.33-17.613-19.149-17.613s-9.421 7.885-18.944 17.408c-9.523 9.523-17.818 17.408-18.432 17.408-0.512 0-8.909-7.987-18.637-17.613l-17.715-17.715-17.715 17.715c-9.728 9.626-18.125 17.613-18.637 17.613-0.614 0-11.162-10.138-23.552-22.528l-22.528-22.528 18.534-18.432 18.432-18.432h263.27l3.072-6.963c8.909-20.070 27.955-40.96 47.821-52.326 9.933-5.632 17.715-8.806 30.208-12.186 8.806-2.355 11.776-2.662 27.75-2.662 16.179 0 18.842 0.307 27.75 2.662 18.637 5.018 32.256 11.981 45.875 23.142 29.901 24.576 45.773 62.054 42.189 99.328-2.765 29.286-13.824 53.043-33.997 73.011-15.462 15.258-31.949 24.678-54.682 30.822-5.325 1.536-11.469 2.15-24.064 2.355-9.318 0.205-18.022 0.102-19.456-0.102zM851.968 231.526c12.186-6.246 19.661-17.613 20.275-30.925 1.126-21.914-14.848-38.707-36.659-38.605-17.306 0.205-31.027 10.65-35.43 27.136-2.765 10.547-1.024 20.582 5.427 30.208 4.096 6.246 8.909 10.035 16.589 13.312 4.915 2.048 7.066 2.355 14.95 2.048 7.782-0.205 10.24-0.717 14.848-3.174zM223.744 308.122c-1.126-0.205-4.608-0.922-7.68-1.536-16.486-3.379-36.147-13.005-49.664-24.474-51.405-43.622-54.17-122.061-5.939-169.062 8.294-8.192 17.92-14.848 30.208-20.992 30.413-15.258 68.608-15.258 99.43 0.205 13.005 6.554 23.45 14.131 32.563 23.654 22.118 23.142 32.87 52.019 31.334 84.378-2.048 46.285-30.822 85.299-74.957 101.99-12.083 4.506-18.33 5.632-35.84 5.939-9.523 0.205-18.33 0.205-19.456-0.102z" />
<glyph unicode="&#xe91c;" glyph-name="cart" data-tags="cart" d="M0 937.472v-22.528h54.272c42.701 0 54.272-0.307 54.272-1.229 0-5.837 127.181-803.942 128.307-805.376 0.717-1.024 9.523-1.331 37.478-1.434 32.87-0.102 35.84-0.205 30.208-1.434-21.606-4.71-43.418-20.275-54.579-39.117-9.523-16.077-13.005-29.901-12.083-48.947 0.819-19.046 6.451-33.997 18.227-48.845 11.059-14.029 24.883-23.245 43.418-29.082 8.397-2.662 10.547-2.97 24.064-2.867 14.234 0 15.258 0.205 25.088 3.584 12.186 4.198 21.504 9.216 29.184 15.77 28.57 24.474 38.093 62.464 24.474 97.792-9.626 25.088-34.202 45.978-60.621 51.712-5.325 1.126 33.69 1.331 252.723 1.331 217.6 0 258.048-0.205 252.826-1.331-21.606-4.71-43.418-20.275-54.579-39.117-9.421-15.77-13.005-30.106-12.083-48.333 0.922-19.354 6.656-34.816 18.33-49.562 10.957-13.926 24.883-23.142 43.315-28.979 8.397-2.662 10.547-2.97 24.064-2.867 14.234 0 15.258 0.205 25.088 3.584 24.064 8.294 40.038 22.016 50.688 43.418 7.27 14.848 8.602 20.685 8.704 38.4 0 15.872-1.229 22.016-7.168 35.533-10.342 23.245-34.099 42.496-59.29 47.923-5.632 1.229-2.56 1.331 30.413 1.434l36.557 0.102v45.056l-681.37 0.512-7.987 51.712c-4.301 28.467-7.885 52.019-7.987 52.531 0 0.41 158.515 0.717 352.256 0.717h352.256l0.512 2.253c0.512 2.765 65.024 517.837 65.024 519.782 0 0.922-85.709 1.229-424.96 1.229-233.677 0-424.96 0.307-425.062 0.819 0 0.41-6.144 40.55-13.619 89.293l-13.517 88.576-146.842 0.512v-22.528z" />
<glyph unicode="&#xe91d;" glyph-name="car-times" data-tags="car-times" d="M457.728 856.474c-83.558-7.987-158.822-69.837-211.149-173.466-4.301-8.397-9.421-19.354-11.469-24.166l-3.789-8.806-16.077-0.614c-30.925-1.229-59.494-7.373-89.6-19.251-61.030-24.166-107.827-73.216-122.573-128.205l-3.072-11.674 0.205-83.354 0.307-83.354 4.198-8.704c2.355-4.813 6.349-11.469 8.909-14.95 8.499-11.264 25.088-22.528 38.707-26.419 6.656-1.843 22.733-3.686 32.768-3.686h7.373l-0.717 3.277c-11.162 56.013 18.944 114.995 70.758 138.65 18.125 8.294 33.69 11.674 53.555 11.674 26.010 0 48.333-6.656 70.451-21.094 41.472-27.034 63.898-80.998 53.862-129.638l-0.614-2.867h172.237v5.12c0 12.902 4.506 43.93 8.806 60.928 20.378 79.974 75.059 147.558 149.811 185.037 47.514 23.757 104.858 33.792 158.515 27.443 28.058-3.277 56.934-10.854 80.077-20.992 4.506-1.946 8.397-3.584 8.704-3.584 1.024 0 0.717 54.784-0.41 72.192-3.994 61.133-15.36 117.043-32.973 161.28-21.606 54.374-49.971 87.757-83.046 98.099-4.813 1.536-21.811 1.741-169.677 1.843-90.931 0.102-168.653-0.307-174.080-0.717zM615.424 710.246v-116.838h-185.856c-177.971 0-185.856 0.102-185.856 1.843 0 1.024 2.048 7.066 4.506 13.517 21.914 57.651 50.483 103.219 88.269 140.8 35.84 35.635 74.342 58.47 117.146 69.53 25.805 6.656 33.178 7.168 107.827 7.578l53.965 0.307v-116.736zM764.109 824.525c43.418-12.493 80.077-67.379 101.171-151.245 5.53-22.016 14.438-76.186 12.902-78.643-0.205-0.41-50.278-0.922-111.104-1.024l-110.694-0.41v233.882l50.995-0.41c43.52-0.41 51.712-0.717 56.73-2.15zM764.928 489.984c-26.112-3.891-46.592-10.445-70.963-22.63-6.656-3.379-13.414-6.963-14.848-7.987-1.536-0.922-5.018-3.379-7.885-5.222-12.8-8.602-21.504-15.77-34.304-28.672-15.053-15.053-22.528-24.474-34.611-43.315-9.421-14.848-21.402-44.134-25.702-62.874-5.325-23.245-5.734-26.419-5.734-53.555 0-22.63 0.307-27.75 2.253-38.707 8.602-47.206 29.491-87.45 62.874-121.037 19.149-19.354 33.178-29.696 56.422-41.984 56.422-29.594 126.362-33.587 185.446-10.65 35.43 13.824 67.072 35.942 90.112 62.976 20.48 24.166 31.744 43.622 44.032 76.39 4.813 12.493 9.626 37.376 11.162 56.832 5.632 71.168-25.19 143.667-80.691 189.85-31.744 26.419-69.53 43.52-110.49 50.176-16.077 2.662-51.098 2.867-67.072 0.41zM847.77 369.562l51.2 51.098 26.624-26.522 26.624-26.624-50.688-50.688c-27.853-27.853-50.586-50.995-50.586-51.61 0-0.512 22.733-23.757 50.381-51.405l50.483-50.483-53.248-53.248-101.888 101.888-101.888-101.888-53.248 53.248 101.888 101.888-101.888 101.888 53.248 53.248 101.888-101.888 51.098 51.098zM197.837 398.746c-7.168-1.229-19.661-5.53-27.341-9.421-21.197-10.547-39.219-29.389-48.435-50.688-5.939-13.517-7.578-20.89-8.090-37.069-1.024-27.853 5.53-48.128 22.016-68.813 24.883-30.925 66.048-44.749 105.37-35.226 32.358 7.782 59.187 32.051 71.475 64.614 5.53 14.643 7.475 36.762 4.608 52.736-3.789 21.914-14.131 40.858-31.027 56.934-12.698 12.083-27.853 20.582-45.568 25.6-6.963 1.946-34.918 2.867-43.008 1.331z" />
<glyph unicode="&#xe91e;" glyph-name="cart-plus" data-tags="cart-plus" d="M0 937.472v-22.528h54.272c42.701 0 54.272-0.307 54.272-1.229 0-5.837 127.181-803.942 128.307-805.376 0.717-1.024 9.523-1.331 37.478-1.434 32.87-0.102 35.84-0.205 30.208-1.434-21.606-4.71-43.418-20.275-54.579-39.117-9.523-16.077-13.005-29.901-12.083-48.947 0.819-19.046 6.451-33.997 18.227-48.845 11.059-14.029 24.883-23.245 43.418-29.082 8.397-2.662 10.547-2.97 24.064-2.867 14.234 0 15.258 0.205 25.088 3.584 12.186 4.198 21.504 9.216 29.184 15.77 28.57 24.474 38.093 62.464 24.474 97.792-9.626 25.088-34.202 45.978-60.621 51.712-5.325 1.126 33.69 1.331 252.723 1.331 217.6 0 258.048-0.205 252.826-1.331-21.606-4.71-43.418-20.275-54.579-39.117-9.421-15.77-13.005-30.106-12.083-48.333 0.922-19.354 6.656-34.816 18.33-49.562 10.957-13.926 24.883-23.142 43.315-28.979 8.397-2.662 10.547-2.97 24.064-2.867 14.234 0 15.258 0.205 25.088 3.584 24.064 8.294 40.038 22.016 50.688 43.418 7.27 14.848 8.602 20.685 8.704 38.4 0 15.872-1.229 22.016-7.168 35.533-10.342 23.245-34.099 42.496-59.29 47.923-5.632 1.229-2.56 1.331 30.413 1.434l36.557 0.102v45.056l-681.37 0.512-7.987 51.712c-4.301 28.467-7.885 52.019-7.987 52.531 0 0.41 158.515 0.717 352.256 0.717h352.256l0.512 2.253c0.512 2.765 65.024 517.837 65.024 519.782 0 0.922-85.709 1.229-424.96 1.229-233.677 0-424.96 0.307-425.062 0.819 0 0.41-6.144 40.55-13.619 89.293l-13.517 88.576-146.842 0.512v-22.528zM618.496 626.176v-69.632l139.776-0.512 0.307-36.045 0.205-36.147-139.776-0.512-0.307-69.325-0.205-69.427h-72.704v139.264h-139.264l0.205 36.147 0.307 36.045 138.752 0.512v139.264h72.704v-69.632z" />
<glyph unicode="&#xe91f;" glyph-name="cart-times" data-tags="cart-times" d="M0 937.472v-22.528h54.272c42.701 0 54.272-0.307 54.272-1.229 0-5.837 127.181-803.942 128.307-805.376 0.717-1.024 9.523-1.331 37.478-1.434 32.87-0.102 35.84-0.205 30.208-1.434-21.606-4.71-43.418-20.275-54.579-39.117-9.523-16.077-13.005-29.901-12.083-48.947 0.819-19.046 6.451-33.997 18.227-48.845 11.059-14.029 24.883-23.245 43.418-29.082 8.397-2.662 10.547-2.97 24.064-2.867 14.234 0 15.258 0.205 25.088 3.584 12.186 4.198 21.504 9.216 29.184 15.77 28.57 24.474 38.093 62.464 24.474 97.792-9.626 25.088-34.202 45.978-60.621 51.712-5.325 1.126 33.69 1.331 252.723 1.331 217.6 0 258.048-0.205 252.826-1.331-21.606-4.71-43.418-20.275-54.579-39.117-9.421-15.77-13.005-30.106-12.083-48.333 0.922-19.354 6.656-34.816 18.33-49.562 10.957-13.926 24.883-23.142 43.315-28.979 8.397-2.662 10.547-2.97 24.064-2.867 14.234 0 15.258 0.205 25.088 3.584 24.064 8.294 40.038 22.016 50.688 43.418 7.27 14.848 8.602 20.685 8.704 38.4 0 15.872-1.229 22.016-7.168 35.533-10.342 23.245-34.099 42.496-59.29 47.923-5.632 1.229-2.56 1.331 30.413 1.434l36.557 0.102v45.056l-681.37 0.512-7.987 51.712c-4.301 28.467-7.885 52.019-7.987 52.531 0 0.41 158.515 0.717 352.256 0.717h352.256l0.512 2.253c0.512 2.765 65.024 517.837 65.024 519.782 0 0.922-85.709 1.229-424.96 1.229-233.677 0-424.96 0.307-425.062 0.819 0 0.41-6.144 40.55-13.619 89.293l-13.517 88.576-146.842 0.512v-22.528zM533.709 620.339l48.947-48.947 98.304 98.304 51.2-51.2-48.64-48.64c-26.726-26.726-48.64-49.152-48.64-49.664s22.016-23.040 48.845-49.869l48.947-48.947-51.2-51.2-98.816 98.816-48.947-48.947c-26.829-26.829-49.357-48.845-49.869-48.845-0.614 0-12.288 11.264-26.112 25.088l-25.088 25.088 48.947 48.947c26.829 26.829 48.845 49.357 48.845 49.869 0 0.614-21.914 22.938-48.64 49.664l-48.64 48.64 25.293 25.293c14.029 14.029 25.6 25.395 25.907 25.395s22.528-22.016 49.357-48.845z" />
<glyph unicode="&#xe920;" glyph-name="case" data-tags="case" d="M281.907 864.768c-7.987-1.843-16.384-8.909-20.992-17.715l-2.355-4.301-1.024-155.648-29.184-0.614v-657.306l567.808 0.512 0.307 328.499 0.205 328.397h-29.594l-0.307 77.107-0.307 77.005-2.662 5.632c-3.174 6.656-9.421 13.107-16.077 16.486l-4.813 2.458-228.864 0.205c-125.85 0-230.298-0.205-232.141-0.717zM686.797 801.587c5.12-2.765 8.909-7.475 10.445-13.107 1.331-5.018 1.536-80.077 0.205-85.811-1.434-5.939-5.222-10.752-10.752-13.517l-5.12-2.56h-339.046l-5.222 2.458c-5.427 2.56-8.499 5.939-10.445 11.776-0.819 2.458-1.229 16.282-1.229 45.056 0 38.4 0.205 41.882 1.946 45.773 2.253 4.915 7.68 9.626 13.107 11.366 2.97 0.922 45.568 1.126 172.851 1.024l168.96-0.205 4.301-2.253zM37.99 684.954c-12.698-3.379-23.962-12.186-31.232-24.269-7.27-12.186-6.758 10.957-6.758-302.49 0-311.091-0.41-288.87 6.349-301.568 3.789-7.168 14.029-17.101 21.606-20.992 10.752-5.427 13.21-5.734 60.416-6.144l43.725-0.512v657.613l-44.237-0.102c-35.328 0-45.466-0.307-49.869-1.536zM891.904 357.786v-328.806l43.827 0.41c47.206 0.512 49.254 0.717 60.621 6.451 7.27 3.686 17.51 13.722 21.299 20.787 6.758 12.698 6.349-9.523 6.349 301.568 0 313.446 0.512 290.304-6.758 302.49-4.813 7.987-12.8 15.872-19.866 19.661-11.264 6.042-13.517 6.246-61.645 6.246h-43.827v-328.806z" />
<glyph unicode="&#xe921;" glyph-name="case-plus" data-tags="case-plus" d="M281.907 864.768c-7.987-1.843-16.384-8.909-20.992-17.715l-2.355-4.301-1.024-155.648-29.184-0.614v-657.306l567.808 0.512 0.307 328.499 0.205 328.397h-29.594l-0.307 77.107-0.307 77.005-2.662 5.632c-3.174 6.656-9.421 13.107-16.077 16.486l-4.813 2.458-228.864 0.205c-125.85 0-230.298-0.205-232.141-0.717zM686.797 801.587c5.12-2.765 8.909-7.475 10.445-13.107 1.331-5.018 1.536-80.077 0.205-85.811-1.434-5.939-5.222-10.752-10.752-13.517l-5.12-2.56h-339.046l-5.222 2.458c-5.427 2.56-8.499 5.939-10.445 11.776-0.819 2.458-1.229 16.282-1.229 45.056 0 38.4 0.205 41.882 1.946 45.773 2.253 4.915 7.68 9.626 13.107 11.366 2.97 0.922 45.568 1.126 172.851 1.024l168.96-0.205 4.301-2.253zM548.045 464.691l0.307-69.427 139.264-1.024v-71.68l-139.264-1.024-0.307-69.325-0.205-69.427h-72.704v139.264l-138.752 0.512v71.68l138.752 0.512v139.264h72.704l0.205-69.325zM37.99 684.954c-12.698-3.379-23.962-12.186-31.232-24.269-7.27-12.186-6.758 10.957-6.758-302.49 0-311.091-0.41-288.87 6.349-301.568 3.789-7.168 14.029-17.101 21.606-20.992 10.752-5.427 13.21-5.734 60.416-6.144l43.725-0.512v657.613l-44.237-0.102c-35.328 0-45.466-0.307-49.869-1.536zM891.904 357.786v-328.806l43.827 0.41c47.206 0.512 49.254 0.717 60.621 6.451 7.27 3.686 17.51 13.722 21.299 20.787 6.758 12.698 6.349-9.523 6.349 301.568 0 313.446 0.512 290.304-6.758 302.49-4.813 7.987-12.8 15.872-19.866 19.661-11.264 6.042-13.517 6.246-61.645 6.246h-43.827v-328.806z" />
<glyph unicode="&#xe922;" glyph-name="case-times" data-tags="case-times" d="M281.907 864.768c-7.987-1.843-16.384-8.909-20.992-17.715l-2.355-4.301-1.024-155.648-29.184-0.614v-657.306l567.808 0.512 0.307 328.499 0.205 328.397h-29.594l-0.307 77.107-0.307 77.005-2.662 5.632c-3.174 6.656-9.421 13.107-16.077 16.486l-4.813 2.458-228.864 0.205c-125.85 0-230.298-0.205-232.141-0.717zM686.797 801.587c5.12-2.765 8.909-7.475 10.445-13.107 1.331-5.018 1.536-80.077 0.205-85.811-1.434-5.939-5.222-10.752-10.752-13.517l-5.12-2.56h-339.046l-5.222 2.458c-5.427 2.56-8.499 5.939-10.445 11.776-0.819 2.458-1.229 16.282-1.229 45.056 0 38.4 0.205 41.882 1.946 45.773 2.253 4.915 7.68 9.626 13.107 11.366 2.97 0.922 45.568 1.126 172.851 1.024l168.96-0.205 4.301-2.253zM613.069 408.269c-26.829-26.829-48.845-49.357-48.845-49.869s22.016-23.040 48.845-49.869l48.947-48.947-25.088-25.088c-13.824-13.824-25.498-25.088-26.112-25.088-0.512 0-23.040 22.016-49.869 48.845l-48.947 48.947-48.947-48.947c-26.829-26.829-49.357-48.845-49.869-48.845-0.614 0-12.288 11.264-26.112 25.088l-25.088 25.088 48.947 48.947c26.829 26.829 48.845 49.357 48.845 49.869s-22.016 23.040-48.845 49.869l-48.947 48.947 25.088 25.088c13.824 13.824 25.498 25.088 26.112 25.088 0.512 0 23.040-22.016 49.869-48.845l48.947-48.947 49.357 49.459 49.459 49.357 51.2-51.2-48.947-48.947zM37.99 684.954c-12.698-3.379-23.962-12.186-31.232-24.269-7.27-12.186-6.758 10.957-6.758-302.49 0-311.091-0.41-288.87 6.349-301.568 3.789-7.168 14.029-17.101 21.606-20.992 10.752-5.427 13.21-5.734 60.416-6.144l43.725-0.512v657.613l-44.237-0.102c-35.328 0-45.466-0.307-49.869-1.536zM891.904 357.786v-328.806l43.827 0.41c47.206 0.512 49.254 0.717 60.621 6.451 7.27 3.686 17.51 13.722 21.299 20.787 6.758 12.698 6.349-9.523 6.349 301.568 0 313.446 0.512 290.304-6.758 302.49-4.813 7.987-12.8 15.872-19.866 19.661-11.264 6.042-13.517 6.246-61.645 6.246h-43.827v-328.806z" />
<glyph unicode="&#xe923;" glyph-name="chart" data-tags="chart" d="M38.912 958.362c-18.944-5.018-33.894-20.582-37.786-39.117-0.819-3.891-1.126-135.168-1.126-471.552 0-415.232 0.205-466.842 1.536-472.269 3.584-13.926 11.878-25.088 23.962-32.256 13.21-7.782-32.666-7.168 486.502-7.168s473.293-0.614 486.502 7.168c18.944 11.264 28.774 33.178 24.371 54.477-2.867 13.619-14.643 29.286-26.522 34.918-13.107 6.349 21.709 5.837-433.152 5.837-462.234 0-422.195-0.614-435.302 7.168-12.083 7.168-20.378 18.33-23.962 32.256-1.331 5.427-1.536 51.814-1.536 421.069 0 298.189-0.307 416.461-1.126 420.352-1.843 9.011-6.963 18.125-14.234 25.498-12.8 12.902-31.13 18.125-48.128 13.619zM653.312 958.362c-18.944-5.018-33.894-20.582-37.786-39.117-0.819-3.891-1.126-107.52-1.126-368.947 0-403.456-0.614-371.302 6.758-383.59 14.95-24.883 45.875-33.178 70.144-18.739 12.288 7.27 21.504 20.070 24.371 33.587 1.638 7.68 1.638 730.010 0 737.69-1.843 9.011-6.963 18.125-14.234 25.498-12.8 12.902-31.13 18.125-48.128 13.619zM858.112 855.962c-18.944-5.018-33.894-20.582-37.786-39.117-0.819-3.891-1.126-93.696-1.126-317.747 0-346.624-0.512-320.102 6.758-332.39 14.95-24.883 45.875-33.178 70.144-18.739 12.288 7.27 21.504 20.070 24.371 33.587 1.638 7.68 1.638 627.61 0 635.29-1.843 9.011-6.963 18.125-14.234 25.498-12.8 12.902-31.13 18.125-48.128 13.619zM448.512 753.562c-18.944-5.018-33.894-20.582-37.786-39.117-0.819-3.891-1.126-79.872-1.126-266.547 0-289.792-0.512-269.005 6.758-281.19 14.95-24.883 45.875-33.178 70.144-18.739 12.288 7.27 21.504 20.070 24.371 33.587 1.638 7.68 1.638 525.21 0 532.89-1.843 9.011-6.963 18.125-14.234 25.498-12.8 12.902-31.13 18.125-48.128 13.619zM243.712 651.264c-19.149-5.325-33.894-20.685-37.786-39.219-0.819-3.891-1.126-66.048-1.126-215.347 0-232.96-0.41-217.907 6.758-229.99 15.462-25.6 47.411-33.382 72.294-17.408 10.854 6.861 19.558 19.558 22.221 32.256 1.638 7.68 1.638 422.81 0 430.49-3.482 16.896-16.794 32.051-33.28 37.786-8.090 2.765-21.709 3.482-29.082 1.434z" />
<glyph unicode="&#xe924;" glyph-name="chart-pie" data-tags="chart-pie" d="M443.904 955.392c-87.040-11.571-173.466-47.411-242.688-100.762-63.795-49.254-113.152-109.363-148.275-180.634-90.419-183.398-62.874-403.456 69.837-558.285 69.632-81.306 160.973-137.83 264.806-164.147 42.496-10.752 77.824-14.95 125.44-14.95 31.232 0 45.158 0.922 73.728 5.12 86.016 12.493 170.394 48.333 237.67 100.864l5.734 4.506-165.786 168.96c-193.434 197.12-195.994 199.782-199.68 207.36-6.349 12.8-5.939-6.758-5.939 275.661v257.843l-2.253-0.102c-1.331-0.102-6.963-0.717-12.595-1.434zM565.248 733.696c0-144.384 0.307-223.232 1.024-223.232 0.512 0 71.578 10.547 157.901 23.45 86.323 13.005 185.344 27.75 219.955 32.973 34.611 5.12 63.078 9.421 63.181 9.523 0.512 0.41-6.758 24.883-11.469 38.502-33.997 99.123-98.509 185.856-185.344 248.934-39.526 28.774-89.702 54.374-137.216 69.837-35.226 11.469-56.832 16.486-94.106 21.709-6.144 0.819-11.776 1.536-12.595 1.536-1.126 0-1.331-38.502-1.331-223.232zM969.216 462.234c-29.286-4.403-87.347-13.107-129.024-19.354-41.677-6.144-107.213-15.974-145.715-21.709-38.4-5.734-69.734-10.752-69.632-11.162 0.205-0.41 20.378-21.197 44.851-46.182s87.859-89.498 140.698-143.36c52.838-53.965 96.461-97.792 96.973-97.587 1.638 1.126 25.702 33.792 33.28 45.261 23.552 35.84 44.442 79.667 58.266 122.163 13.21 40.653 21.299 83.968 24.064 128 1.229 19.763 1.331 50.893 0.307 51.507-0.512 0.205-24.781-3.277-54.067-7.578z" />
<glyph unicode="&#xe925;" glyph-name="check" data-tags="check" d="M769.536 607.642c-295.731-199.885-408.166-275.763-409.702-276.685-0.614-0.41-20.685 7.168-44.544 16.794-152.064 61.235-313.549 125.85-313.856 125.542-0.205-0.102 80.282-80.896 178.79-179.405l179.2-179.2 332.083 332.083c182.579 182.579 331.776 331.981 331.469 331.981-0.307-0.102-114.278-77.005-253.44-171.11z" />
<glyph unicode="&#xe926;" glyph-name="checkbox" data-tags="checkbox" d="M38.912 958.362c-18.944-5.018-33.894-20.582-37.786-39.117-0.819-3.891-1.126-135.168-1.126-471.552 0-415.232 0.205-466.842 1.536-472.269 3.584-13.926 11.878-25.088 23.962-32.256 13.21-7.782-32.666-7.168 486.502-7.168s473.293-0.614 486.502 7.168c12.083 7.168 20.378 18.33 23.962 32.256 1.331 5.427 1.536 57.037 1.536 472.269 0 335.462-0.307 467.661-1.126 471.552-2.867 13.619-14.643 29.286-26.522 34.918-13.21 6.349 26.829 5.837-484.864 5.734-405.914 0-467.661-0.205-472.576-1.536zM882.176 856.064c10.138-2.662 16.896-6.451 24.064-13.722 7.27-7.373 12.39-16.486 14.234-25.498 0.819-3.891 1.126-108.237 1.126-369.152 0-323.277-0.205-364.442-1.536-369.869-3.584-13.926-11.878-25.088-23.962-32.256-13.107-7.782 21.197-7.168-384.102-7.168s-370.995-0.614-384.102 7.168c-12.083 7.168-20.378 18.33-23.962 32.256-1.331 5.427-1.536 46.592-1.536 369.869 0 261.53 0.307 365.261 1.126 369.152 3.891 18.534 18.842 34.099 37.786 39.117 4.915 1.331 53.965 1.536 370.176 1.536 324.096 0.102 365.261-0.102 370.688-1.434zM870.298 681.062c-0.819-0.717-12.902-9.114-27.034-18.534-30.618-20.582-58.47-39.424-77.312-52.224-20.070-13.619-45.875-31.13-67.584-45.773-10.445-6.963-29.798-20.070-43.008-29.082-13.21-8.909-34.304-23.142-46.797-31.642-50.79-34.202-100.25-67.584-119.603-80.691-11.264-7.68-29.696-20.070-40.96-27.75-11.264-7.578-25.907-17.51-32.563-22.016-6.656-4.608-12.39-8.294-12.8-8.294-0.307 0-9.83 3.789-21.094 8.397-11.366 4.506-23.757 9.523-27.75 11.059-3.891 1.536-27.443 10.957-52.224 20.992-86.426 34.816-151.45 60.826-151.757 60.621-0.102-0.205 56.934-57.446 126.669-127.181l126.976-126.976 234.701 234.701c129.126 129.126 234.496 235.008 234.189 235.213-0.307 0.307-1.229 0-2.048-0.819z" />
<glyph unicode="&#xe927;" glyph-name="cog" data-tags="cog" d="M400.179 908.186l-0.307-51.814-20.48-6.861c-23.757-7.987-38.707-14.336-60.826-25.805l-15.872-8.192-74.854 74.854-158.72-158.72 37.478-37.581 37.376-37.683-9.83-19.456c-10.854-21.402-18.227-39.219-25.702-61.952l-4.813-14.848-49.766-0.307-49.766-0.205v-224.256h99.123l2.15-7.475c7.066-24.064 18.022-51.405 30.31-75.264l7.68-15.053-74.24-74.24 78.848-78.848c43.315-43.418 79.258-78.848 79.872-78.848 0.512 0 17.408 16.282 37.376 36.25l36.352 36.25 12.288-6.656c22.733-12.288 48.333-23.142 73.728-31.027l12.288-3.891 0.307-50.278 0.205-50.278h224.256v100.045l18.227 5.939c21.504 6.861 48.742 18.33 67.277 28.058l13.312 7.066 72.704-72.499 158.72 158.72-72.602 72.602 3.379 5.939c12.39 22.118 26.419 55.808 34.406 82.227l3.174 10.752 48.333 0.307 48.333 0.205v224.256h-97.075l-4.813 15.155c-6.861 21.402-16.589 45.056-27.238 65.741l-9.114 17.92 73.216 73.216-158.72 158.72-73.83-73.83-12.8 6.656c-22.938 11.981-60.314 27.034-80.486 32.358l-4.403 1.126v103.322h-224.256l-0.205-51.814zM544.256 635.085c20.582-3.891 37.376-9.421 53.862-17.613 84.89-42.598 125.85-140.8 96.051-230.4-21.811-65.536-75.571-112.845-144.794-127.693-10.138-2.15-13.824-2.355-36.864-2.355-28.16 0.102-35.635 1.126-56.73 7.885-67.174 21.504-117.248 78.336-130.253 147.763-3.072 16.282-3.789 44.339-1.536 59.904 8.499 58.163 41.677 107.827 92.467 138.547 18.944 11.366 44.646 20.582 68.403 24.269 14.848 2.355 45.978 2.15 59.392-0.307z" />
<glyph unicode="&#xe928;" glyph-name="cogs" data-tags="cogs" d="M473.088 927.846v-32.154l-13.722-4.608c-14.746-5.018-31.027-12.083-41.37-17.818l-6.349-3.584-23.245 23.142c-12.8 12.698-23.45 23.142-23.757 23.142-0.41 0-22.733-22.118-49.766-49.152l-49.152-49.152 46.694-46.694-7.475-15.462c-4.198-8.397-9.83-22.118-12.595-30.413l-5.12-14.95h-61.952v-140.288l30.822-0.205 30.822-0.307 4.301-12.8c5.12-15.053 12.595-32.973 17.51-41.472l3.482-6.144-23.245-23.347-23.245-23.245 49.152-49.152c27.034-27.034 49.562-49.050 49.971-48.845 0.41 0.102 10.854 10.342 23.142 22.63l22.426 22.426 8.704-4.71c11.571-6.349 23.040-11.264 39.629-17.101l13.824-4.813 0.307-31.334 0.205-31.437h139.264l0.205 31.334 0.307 31.334 14.336 4.813c15.258 5.222 29.389 11.264 40.755 17.306l6.861 3.686 22.528-22.426 22.528-22.528 99.021 99.021-22.63 22.426-22.528 22.528 5.222 9.933c6.554 12.39 11.776 24.883 16.794 40.141l3.891 11.776 30.208 0.307 30.31 0.205v140.288h-61.030l-2.765 8.704c-4.198 13.312-9.626 26.419-16.179 39.731-3.379 6.554-6.042 12.595-6.042 13.312 0 0.614 9.933 11.162 22.016 23.245s22.016 22.221 22.016 22.528c0 0.307-22.118 22.63-49.152 49.664l-49.152 49.152-22.835-22.835-22.938-22.835-14.746 7.066c-13.21 6.349-23.040 10.24-40.858 16.282l-5.632 1.843-0.307 32.051-0.205 31.949h-139.264v-32.154zM566.784 756.326c23.552-5.018 43.827-15.872 60.109-32.256 47.616-47.514 47.206-123.392-0.717-169.984-31.437-30.618-76.595-41.37-118.989-28.262-40.038 12.39-71.066 46.694-80.896 89.6-2.56 11.469-2.56 37.786 0 48.64 8.806 36.864 31.744 66.15 64.307 82.227 10.24 5.12 23.45 9.523 32.666 10.854 11.059 1.741 33.69 1.229 43.52-0.819zM228.352 360.038v-22.426l-10.957-3.789c-6.144-2.048-15.872-6.042-21.709-8.909l-10.547-5.222-32.563 32.563-34.509-34.611-34.611-34.509 32.666-32.666-4.813-10.035c-5.53-11.878-9.011-20.48-10.854-27.136l-1.434-4.915h-43.725v-98.304h21.811l21.709-0.102 3.379-10.445c1.843-5.734 5.632-15.258 8.499-21.094l5.12-10.752-32.358-32.358 34.611-34.509 34.509-34.611 16.077 16.077 16.179 15.974 9.728-4.915c5.325-2.765 15.155-6.963 21.811-9.318l11.981-4.301v-43.725h97.28v43.827l10.035 3.174c5.53 1.843 15.258 5.734 21.709 8.909l11.674 5.632 31.334-31.334 34.509 34.611 34.611 34.509-31.334 31.334 5.018 10.24c5.018 10.138 9.216 20.582 11.571 28.774l1.229 4.403 21.094 0.205 21.094 0.307 0.307 48.947 0.205 48.845h-42.906l-1.536 4.915c-2.56 8.499-6.554 18.33-11.469 28.365l-4.915 9.83 31.642 31.642-34.611 34.509-34.509 34.611-32.256-32.051-11.059 5.427c-6.042 2.97-15.565 6.861-21.197 8.806l-10.24 3.482v44.544h-97.28v-22.426zM289.997 241.050c31.437-4.915 56.218-26.214 66.662-57.549 2.97-8.806 3.174-10.445 3.174-24.781 0-14.643-0.102-15.77-3.277-24.986-4.506-13.005-10.24-22.426-19.763-32.358-30.413-31.642-78.643-34.202-113.254-5.939-11.981 9.83-22.938 27.648-27.034 44.237-1.843 7.27-2.15 10.854-1.741 22.528 0.41 12.288 0.819 14.95 3.584 22.835 9.318 26.522 30.515 46.694 56.627 53.862 12.39 3.379 22.733 4.096 35.021 2.15zM748.544 364.339v-18.227l-9.523-3.482c-5.12-1.843-12.902-5.12-17.203-7.27l-7.782-3.891-12.698 12.698c-6.963 6.963-13.107 12.698-13.722 12.698s-13.517-12.39-28.672-27.648l-27.648-27.648 26.214-26.214-4.915-10.138c-2.662-5.632-5.734-13.414-6.963-17.408l-2.253-7.168-17.51-0.307-17.613-0.205v-78.848h34.611l3.277-9.421c1.741-5.222 4.915-13.21 7.168-17.715l3.994-8.192-13.005-13.107-13.005-13.005 27.648-27.648c15.155-15.258 28.058-27.648 28.57-27.648s6.349 5.53 13.005 12.288c6.554 6.758 12.288 12.288 12.698 12.288 0.307 0 4.813-2.048 10.035-4.506 5.222-2.56 12.902-5.734 17.101-7.168l7.68-2.56 0.307-17.92 0.205-18.022h79.872l0.205 18.022 0.307 18.022 7.168 2.253c3.994 1.229 11.776 4.506 17.408 7.066l10.138 4.915 12.39-12.39c6.758-6.758 12.8-12.288 13.312-12.288 0.614 0 13.517 12.39 28.672 27.648l27.648 27.648-13.005 13.005-13.005 13.107 3.686 7.168c2.048 3.994 5.325 11.776 7.373 17.408l3.789 10.24 17.101 0.307 17.101 0.205v78.848h-34.509l-3.277 9.523c-1.843 5.12-5.12 13.005-7.373 17.51-2.253 4.403-3.891 8.294-3.584 8.704 0.307 0.307 6.246 6.246 13.107 13.107l12.595 12.595-27.648 27.648c-15.155 15.155-28.058 27.648-28.672 27.648s-6.554-5.53-13.312-12.288c-6.758-6.758-12.595-12.288-13.107-12.288-0.41 0-4.608 1.843-9.216 3.994-4.608 2.253-12.186 5.325-16.794 6.963l-8.499 2.867v36.352h-79.872v-18.125zM804.762 266.24c3.584-0.922 10.035-3.277 14.336-5.427 10.445-5.018 23.654-18.022 28.979-28.365 6.554-12.8 7.475-16.896 7.475-32.256 0-12.39-0.307-14.643-2.765-21.299-7.475-20.582-22.426-35.533-42.394-42.394-35.43-12.186-73.523 6.656-86.118 42.701-2.56 7.373-2.867 9.626-2.867 21.504s0.307 14.131 2.765 20.787c3.994 11.059 8.602 18.227 17.203 26.829s18.637 14.541 29.696 17.51c8.397 2.253 24.781 2.458 33.69 0.41z" />
<glyph unicode="&#xe929;" glyph-name="cube" data-tags="cube" d="M377.344 923.648c-74.342-19.968-172.646-46.285-218.317-58.573-45.773-12.288-82.842-22.528-82.432-22.938 0.41-0.307 37.171-10.445 81.613-22.426 44.544-11.878 142.131-38.195 216.986-58.368l136.090-36.762 72.806 19.354c277.094 73.728 367.206 97.894 367.206 98.304 0 0.307-34.202 9.728-75.981 20.89-289.997 77.619-361.882 96.87-362.291 96.768-0.307 0-61.338-16.384-135.68-36.25zM0.205 444.826l0.307-336.998 124.928-44.954c68.71-24.781 175.206-63.181 236.749-85.402 61.44-22.221 112.026-40.448 112.333-40.448s0.614 161.28 0.614 358.298c0 340.378-0.102 358.4-1.741 358.912-1.024 0.307-43.11 11.674-93.491 25.19-50.381 13.619-156.262 42.189-235.315 63.59-78.95 21.299-143.872 38.81-144.077 38.81-0.307 0-0.41-151.654-0.307-336.998zM787.456 717.722c-129.229-34.509-235.11-62.771-235.213-62.874-0.512 0-0.307-717.824 0.205-717.824 0.307 0 51.814 18.534 114.483 41.165 62.566 22.528 168.448 60.826 235.213 84.89l121.344 43.725 0.307 336.998c0.102 185.344-0.102 336.998-0.512 336.896-0.512 0-106.598-28.365-235.827-62.976z" />
<glyph unicode="&#xe92a;" glyph-name="cube-plus" data-tags="cube-plus" d="M444.928 955.392c-9.011-2.355-24.166-6.451-33.792-9.011-9.523-2.56-26.112-7.066-36.864-9.933-10.65-2.867-26.112-7.066-34.304-9.216s-22.938-6.144-32.768-8.806c-9.83-2.56-25.293-6.758-34.304-9.114s-33.894-9.114-55.296-14.848c-21.402-5.734-44.646-11.981-51.712-13.824-13.722-3.686-30.72-8.192-64.717-17.306-11.571-3.072-23.757-6.451-27.136-7.373l-5.939-1.741 4.608-1.434c2.56-0.819 13.824-3.891 25.088-6.963 36.147-9.728 59.085-15.974 72.192-19.456 14.029-3.789 40.55-10.957 70.451-18.944 10.547-2.867 30.925-8.397 45.261-12.288 33.28-8.909 90.726-24.371 127.488-34.304 11.878-3.277 27.238-7.373 34.202-9.216l12.8-3.379 15.36 3.994c8.499 2.253 23.962 6.349 34.406 9.114s24.986 6.656 32.256 8.602c7.373 1.946 35.226 9.318 61.952 16.486 26.726 7.066 56.525 14.95 66.048 17.51 37.069 9.83 52.838 14.029 68.608 18.33 39.014 10.445 57.037 15.258 84.48 22.528 34.304 9.114 33.075 8.806 32.461 9.318-0.512 0.512-10.138 3.277-28.365 8.090-7.066 1.843-30.31 8.090-51.712 13.824s-46.285 12.493-55.296 14.848c-9.011 2.355-24.474 6.554-34.304 9.114-9.83 2.662-24.576 6.656-32.768 8.806-22.016 5.837-110.899 29.696-135.68 36.352-30.822 8.294-55.706 14.848-56.013 14.746-0.205 0-7.68-2.048-16.691-4.506zM0 496.23v-302.899l4.403-1.638c2.355-0.922 17.92-6.554 34.509-12.493 16.589-6.042 35.738-12.902 42.496-15.36 31.744-11.366 59.802-21.504 76.8-27.648 7.373-2.56 21.402-7.68 31.232-11.264s26.419-9.523 36.864-13.21c10.445-3.789 21.914-7.885 25.6-9.318 3.686-1.331 15.155-5.53 25.6-9.216 10.445-3.789 27.034-9.728 36.864-13.312s26.419-9.626 36.864-13.312c10.445-3.789 31.539-11.366 46.899-16.998 15.462-5.53 28.16-10.138 28.467-10.138 0.205 0 0.41 145.101 0.41 322.56v322.458l-5.325 1.536c-2.97 0.819-15.053 4.096-26.931 7.27-24.678 6.656-41.37 11.162-64.512 17.408-19.354 5.222-49.869 13.517-79.872 21.504-26.931 7.27-48.538 13.107-94.72 25.6-19.968 5.427-42.086 11.366-49.152 13.312-7.066 1.843-21.504 5.837-32.256 8.704-10.65 2.867-26.317 7.066-34.816 9.318-8.397 2.253-20.173 5.53-26.010 7.168-5.939 1.638-11.264 2.97-12.083 2.97-1.126 0-1.331-51.917-1.331-303.002zM893.952 791.45c-13.21-3.686-32.768-8.909-43.52-11.776-10.65-2.867-26.214-6.963-34.509-9.216-8.397-2.15-21.914-5.837-30.208-7.987-8.397-2.253-31.744-8.499-52.019-13.926s-44.442-11.878-53.76-14.336c-22.938-6.042-41.165-10.854-84.48-22.528-20.275-5.427-44.442-11.878-53.76-14.336-18.739-4.915-30.515-8.090-38.605-10.342l-5.427-1.536v-323.072c0-307.405 0.102-323.174 1.843-322.458 2.867 1.126 27.034 9.83 30.72 11.059 1.741 0.614 3.277 1.536 3.277 2.15s-1.434 4.813-3.174 9.318c-22.118 57.549-24.064 125.030-5.427 185.344 22.835 73.728 75.674 135.578 145.715 170.701 47.514 23.757 104.858 33.792 158.515 27.443 29.082-3.379 57.344-10.957 82.33-22.016l10.138-4.506v189.44c0 179.712-0.102 189.338-1.741 189.235-1.024-0.102-12.698-3.072-25.907-6.656zM764.826 387.584c-55.194-8.090-105.165-35.738-141.107-78.336-26.419-31.13-43.827-69.12-50.995-111.104-2.56-15.155-2.662-55.398 0-70.349 6.861-40.141 22.426-75.264 47.411-107.11 13.414-16.998 36.454-37.274 57.242-50.381 26.829-16.896 65.331-30.208 95.334-33.075 10.547-0.922 38.707-0.922 49.050 0.102 15.053 1.434 37.888 6.758 53.555 12.595 70.042 25.805 123.802 85.504 141.517 157.082 2.56 10.445 3.482 14.95 5.632 28.672 1.434 8.499 1.741 37.376 0.614 48.333-5.632 53.453-28.16 101.274-65.126 138.65-29.594 29.798-63.283 49.050-105.779 60.416-24.474 6.554-60.518 8.397-87.347 4.506zM834.56 272.384v-72.192h144.384v-74.752h-144.384v-144.384h-74.752l-0.205 71.987-0.307 71.885-143.872 0.512v74.752l143.872 0.512 0.307 71.987 0.205 71.885h74.752v-72.192z" />
<glyph unicode="&#xe92b;" glyph-name="cube-times" data-tags="cube-times" d="M444.928 955.392c-9.011-2.355-24.166-6.451-33.792-9.011-9.523-2.56-26.112-7.066-36.864-9.933-10.65-2.867-26.112-7.066-34.304-9.216s-22.938-6.144-32.768-8.806c-9.83-2.56-25.293-6.758-34.304-9.114s-33.894-9.114-55.296-14.848c-21.402-5.734-44.646-11.981-51.712-13.824-13.722-3.686-30.72-8.192-64.717-17.306-11.571-3.072-23.757-6.451-27.136-7.373l-5.939-1.741 4.608-1.434c2.56-0.819 13.824-3.891 25.088-6.963 36.147-9.728 59.085-15.974 72.192-19.456 14.029-3.789 40.55-10.957 70.451-18.944 10.547-2.867 30.925-8.397 45.261-12.288 33.28-8.909 90.726-24.371 127.488-34.304 11.878-3.277 27.238-7.373 34.202-9.216l12.8-3.379 15.36 3.994c8.499 2.253 23.962 6.349 34.406 9.114s24.986 6.656 32.256 8.602c7.373 1.946 35.226 9.318 61.952 16.486 26.726 7.066 56.525 14.95 66.048 17.51 37.069 9.83 52.838 14.029 68.608 18.33 39.014 10.445 57.037 15.258 84.48 22.528 34.304 9.114 33.075 8.806 32.461 9.318-0.512 0.512-10.138 3.277-28.365 8.090-7.066 1.843-30.31 8.090-51.712 13.824s-46.285 12.493-55.296 14.848c-9.011 2.355-24.474 6.554-34.304 9.114-9.83 2.662-24.576 6.656-32.768 8.806-22.016 5.837-110.899 29.696-135.68 36.352-30.822 8.294-55.706 14.848-56.013 14.746-0.205 0-7.68-2.048-16.691-4.506zM0 496.23v-302.899l4.403-1.638c2.355-0.922 17.92-6.554 34.509-12.493 16.589-6.042 35.738-12.902 42.496-15.36 31.744-11.366 59.802-21.504 76.8-27.648 7.373-2.56 21.402-7.68 31.232-11.264s26.419-9.523 36.864-13.21c10.445-3.789 21.914-7.885 25.6-9.318 3.686-1.331 15.155-5.53 25.6-9.216 10.445-3.789 27.034-9.728 36.864-13.312s26.419-9.626 36.864-13.312c10.445-3.789 31.539-11.366 46.899-16.998 15.462-5.53 28.16-10.138 28.467-10.138 0.205 0 0.41 145.101 0.41 322.56v322.458l-5.325 1.536c-2.97 0.819-15.053 4.096-26.931 7.27-24.678 6.656-41.37 11.162-64.512 17.408-19.354 5.222-49.869 13.517-79.872 21.504-26.931 7.27-48.538 13.107-94.72 25.6-19.968 5.427-42.086 11.366-49.152 13.312-7.066 1.843-21.504 5.837-32.256 8.704-10.65 2.867-26.317 7.066-34.816 9.318-8.397 2.253-20.173 5.53-26.010 7.168-5.939 1.638-11.264 2.97-12.083 2.97-1.126 0-1.331-51.917-1.331-303.002zM893.952 791.45c-13.21-3.686-32.768-8.909-43.52-11.776-10.65-2.867-26.214-6.963-34.509-9.216-8.397-2.15-21.914-5.837-30.208-7.987-8.397-2.253-31.744-8.499-52.019-13.926s-44.442-11.878-53.76-14.336c-22.938-6.042-41.165-10.854-84.48-22.528-20.275-5.427-44.442-11.878-53.76-14.336-18.739-4.915-30.515-8.090-38.605-10.342l-5.427-1.536v-323.072c0-307.405 0.102-323.174 1.843-322.458 2.867 1.126 27.034 9.83 30.72 11.059 1.741 0.614 3.277 1.536 3.277 2.15s-1.434 4.813-3.174 9.318c-22.118 57.549-24.064 125.030-5.427 185.344 22.835 73.728 75.674 135.578 145.715 170.701 47.514 23.757 104.858 33.792 158.515 27.443 29.082-3.379 57.344-10.957 82.33-22.016l10.138-4.506v189.44c0 179.712-0.102 189.338-1.741 189.235-1.024-0.102-12.698-3.072-25.907-6.656zM764.928 387.584c-26.112-3.891-46.592-10.445-70.963-22.63-6.656-3.379-13.414-6.963-14.848-7.987-1.536-0.922-5.018-3.379-7.885-5.222-12.8-8.602-21.504-15.77-34.304-28.672-15.053-15.053-22.528-24.474-34.611-43.315-9.421-14.848-21.402-44.134-25.702-62.874-5.325-23.245-5.734-26.419-5.734-53.555 0-22.63 0.307-27.75 2.253-38.707 8.602-47.206 29.491-87.45 62.874-121.037 19.149-19.354 33.178-29.696 56.422-41.984 56.422-29.594 126.362-33.587 185.446-10.65 35.43 13.824 67.072 35.942 90.112 62.976 20.48 24.166 31.744 43.622 44.032 76.39 4.813 12.493 9.626 37.376 11.162 56.832 5.632 71.168-25.19 143.667-80.691 189.85-31.744 26.419-69.53 43.52-110.49 50.176-16.077 2.662-51.098 2.867-67.072 0.41zM847.77 267.162l51.2 51.098 26.624-26.522 26.624-26.624-50.688-50.688c-27.853-27.853-50.586-50.995-50.586-51.61 0-0.512 22.733-23.757 50.381-51.405l50.483-50.483-53.248-53.248-101.888 101.888-101.888-101.888-53.248 53.248 101.888 101.888-101.888 101.888 53.248 53.248 101.888-101.888 51.098 51.098z" />
<glyph unicode="&#xe92c;" glyph-name="document" data-tags="document" d="M137.216 448v-512h749.568v810.496l-213.504 213.504h-536.064v-512zM762.88 835.584l113.152-113.152h-227.84v113.152c0 62.259 0.307 113.152 0.819 113.152 0.41 0 51.61-50.893 113.869-113.152zM793.6 419.328v-22.528h-563.2v45.056h563.2v-22.528zM793.6 330.24v-22.528h-563.2v21.811c0 12.083 0.307 22.221 0.717 22.528 0.307 0.41 127.078 0.717 281.6 0.717h280.883v-22.528zM793.6 240.128v-22.528h-563.2v45.056h563.2v-22.528zM793.6 150.528v-23.040l-562.688 0.512-0.307 21.504c-0.102 11.776 0 22.016 0.205 22.733 0.41 1.126 54.682 1.331 281.702 1.331h281.088v-23.040zM793.6 60.928v-22.528h-563.2v45.056h563.2v-22.528z" />
<glyph unicode="&#xe92d;" glyph-name="document-plus" data-tags="document-plus" d="M6.144 499.2v-460.8h534.426l-4.506 10.138c-9.216 20.685-16.179 44.544-20.173 68.506l-2.253 13.517h-423.526v39.936h421.376l1.843 18.227c0.922 9.933 2.048 19.149 2.355 20.48l0.614 2.253h-426.189v39.936l435.61 0.512 5.734 14.336c3.072 7.885 6.758 16.486 7.987 19.046s2.253 5.222 2.253 5.837c0 0.922-52.531 1.229-225.792 1.229h-225.792v39.936l477.696 0.102 4.403 5.837c6.349 8.499 21.709 24.883 33.485 35.738 18.227 16.896 43.52 34.099 65.229 44.646l9.011 4.301v345.088l-191.283 192h-482.509v-460.8zM569.344 847.872l101.888-101.888h-205.312v101.888c0 56.013 0.307 101.888 0.819 101.888 0.41 0 46.592-45.875 102.605-101.888zM596.48 473.6v-19.968l-506.368-0.512v40.96l506.368-0.512v-19.968zM596.787 393.011l0.205-19.763h-506.88v39.936l506.368-0.512 0.307-19.661zM764.826 387.584c-55.194-8.090-105.165-35.738-141.107-78.336-26.419-31.13-43.827-69.12-50.995-111.104-2.56-15.155-2.662-55.398 0-70.349 6.861-40.141 22.426-75.264 47.411-107.11 13.414-16.998 36.454-37.274 57.242-50.381 26.829-16.896 65.331-30.208 95.334-33.075 10.547-0.922 38.707-0.922 49.050 0.102 15.053 1.434 37.888 6.758 53.555 12.595 70.042 25.805 123.802 85.504 141.517 157.082 2.56 10.445 3.482 14.95 5.632 28.672 1.434 8.499 1.741 37.376 0.614 48.333-5.632 53.453-28.16 101.274-65.126 138.65-29.594 29.798-63.283 49.050-105.779 60.416-24.474 6.554-60.518 8.397-87.347 4.506zM834.56 272.384v-72.192h144.384v-74.752h-144.384v-144.384h-74.752l-0.205 71.987-0.307 71.885-143.872 0.512v74.752l143.872 0.512 0.307 71.987 0.205 71.885h74.752v-72.192z" />
<glyph unicode="&#xe92e;" glyph-name="document-times" data-tags="document-times" d="M12.288 499.2v-460.8h528.282l-4.506 10.138c-9.216 20.685-16.179 44.544-20.173 68.403l-2.253 13.619h-417.382v39.936h415.232l1.843 18.227c0.922 9.933 2.048 19.149 2.355 20.48l0.614 2.253h-420.045v39.936l429.466 0.512 5.734 14.336c3.072 7.885 6.758 16.486 7.987 19.046s2.253 5.222 2.253 5.837c0 0.922-51.814 1.229-222.72 1.229h-222.72v39.936l471.552 0.102 4.403 5.837c2.355 3.174 8.602 10.445 13.824 16.077 26.317 28.57 54.579 49.664 88.064 65.843l11.981 5.837v342.016l-191.283 192h-482.509v-460.8zM575.488 847.872l101.888-101.888h-205.312v101.888c0 56.013 0.307 101.888 0.819 101.888 0.41 0 46.592-45.875 102.605-101.888zM602.624 473.6v-19.968l-506.368-0.512v40.96l506.368-0.512v-19.968zM602.931 393.011l0.205-19.763h-506.88v39.936l506.368-0.512 0.307-19.661zM764.928 387.584c-26.112-3.891-46.592-10.445-70.963-22.63-6.656-3.379-13.414-6.963-14.848-7.987-1.536-0.922-5.018-3.379-7.885-5.222-12.8-8.602-21.504-15.77-34.304-28.672-15.053-15.053-22.528-24.474-34.611-43.315-9.421-14.848-21.402-44.134-25.702-62.874-5.325-23.245-5.734-26.419-5.734-53.555 0-22.63 0.307-27.75 2.253-38.707 8.602-47.206 29.491-87.45 62.874-121.037 19.149-19.354 33.178-29.696 56.422-41.984 56.422-29.594 126.362-33.587 185.446-10.65 35.43 13.824 67.072 35.942 90.112 62.976 20.48 24.166 31.744 43.622 44.032 76.39 4.813 12.493 9.626 37.376 11.162 56.832 5.632 71.168-25.19 143.667-80.691 189.85-31.744 26.419-69.53 43.52-110.49 50.176-16.077 2.662-51.098 2.867-67.072 0.41zM847.77 267.162l51.2 51.098 26.624-26.522 26.624-26.624-50.688-50.688c-27.853-27.853-50.586-50.995-50.586-51.61 0-0.512 22.733-23.757 50.381-51.405l50.483-50.483-53.248-53.248-101.888 101.888-101.888-101.888-53.248 53.248 101.888 101.888-101.888 101.888 53.248 53.248 101.888-101.888 51.098 51.098z" />
<glyph unicode="&#xe92f;" glyph-name="dolly" data-tags="dolly" d="M236.032 953.446c-11.776-3.584-69.427-20.685-128-37.99s-106.803-31.744-107.213-32.154c-0.307-0.307 1.638-8.192 4.403-17.51s5.53-18.637 6.144-20.685c0.512-2.253 1.638-3.891 2.458-3.891s49.254 14.131 107.622 31.334c58.368 17.203 106.291 31.027 106.496 30.822 0.307-0.205 14.029-46.899 30.515-103.731 157.594-540.877 185.958-638.771 185.242-639.386-0.41-0.41-3.584-2.765-6.963-5.325-25.498-19.354-42.906-50.586-46.592-83.354-1.126-10.752 0-29.696 2.56-40.653 10.65-45.978 45.67-80.896 92.262-91.955 8.602-2.048 12.698-2.458 27.034-2.458 14.848 0.102 18.227 0.41 27.955 2.867 19.456 4.813 35.43 13.005 50.995 25.907 25.6 21.299 41.984 54.886 43.11 87.962l0.307 9.216 73.216 20.070c40.243 11.059 127.386 35.021 193.536 53.146s120.832 33.28 121.446 33.69c0.819 0.41-0.512 6.963-4.403 21.094-3.072 11.264-5.939 20.787-6.349 21.299-0.614 0.614-30.72-7.475-186.982-50.381-24.781-6.861-79.974-22.016-122.675-33.69l-77.619-21.402-4.71 9.216c-16.384 31.744-47.206 54.989-83.251 62.771-6.861 1.536-12.39 1.843-25.6 1.638-9.318-0.102-18.739-0.307-20.89-0.512l-3.994-0.205-113.766 390.451c-62.566 214.63-113.971 390.349-114.278 390.246-0.307 0-10.138-2.97-22.016-6.451zM532.787 131.482c24.474-7.27 43.315-25.395 51.507-49.562 3.994-11.776 4.608-29.286 1.536-41.37-6.861-27.136-27.034-47.923-53.862-55.603-9.626-2.662-28.16-3.174-37.376-0.922-25.19 6.144-46.694 26.112-55.091 50.995-2.458 7.168-2.662 9.523-2.662 23.347 0 13.926 0.205 16.077 2.765 23.552 6.861 20.48 21.606 36.762 41.882 45.978 6.554 3.072 11.571 4.506 21.299 6.144 5.837 1.024 22.835-0.41 30.003-2.56zM504.013 98.714c-12.493-2.458-22.733-10.445-28.57-22.221-3.686-7.475-3.891-8.192-3.891-18.022 0-9.523 0.307-10.957 3.277-17.203 6.042-12.698 16.896-20.89 31.232-23.45 16.896-3.072 35.328 6.963 43.213 23.552 2.867 6.144 3.174 7.68 3.174 16.998s-0.307 10.854-3.174 16.896c-5.837 12.186-14.95 19.763-27.546 23.040-6.554 1.638-10.854 1.741-17.715 0.41zM523.469 78.643c16.486-8.909 15.667-32.666-1.331-41.37-5.222-2.662-15.053-2.662-20.173 0-20.275 10.342-16.896 38.605 5.427 44.237 4.506 1.126 10.65 0 16.077-2.867zM779.264 629.146c-28.467-8.294-60.109-17.613-70.451-20.582-18.33-5.325-18.637-5.427-18.125-7.987 0.307-1.434 15.462-54.17 33.69-117.248s33.075-114.893 32.87-115.098c-0.819-0.717-95.232-27.75-96.154-27.443-0.512 0.205-16.077 52.531-34.509 116.326s-33.69 116.224-34.099 116.531c-0.307 0.307-17.51-4.403-38.195-10.445-93.286-27.136-118.682-34.714-119.398-35.328-0.512-0.41 16.282-59.29 37.171-130.662 20.89-71.475 40.55-138.65 43.725-149.402 3.072-10.65 6.042-19.866 6.451-20.275 0.41-0.512 4.403-1.331 8.806-1.843 23.142-2.867 47.923-12.8 68.403-27.238 11.571-8.294 27.648-24.576 34.918-35.635 3.379-5.018 6.144-9.318 6.246-9.523s30.72 8.602 68.096 19.558c37.376 10.957 107.008 31.437 154.726 45.363s87.245 25.6 87.757 26.010c0.614 0.307-18.125 66.253-47.104 164.864-26.419 90.419-52.736 180.326-58.47 199.987-9.421 32.154-10.65 35.533-12.493 35.43-1.229 0-25.395-6.963-53.862-15.36z" />
<glyph unicode="&#xe930;" glyph-name="download" data-tags="download" d="M497.152 958.874c-32.768-4.71-63.181-28.672-75.571-59.392-7.885-19.456-7.27-6.451-7.578-164.454-0.205-77.926-0.717-141.619-1.126-141.619s-23.552 22.835-51.405 50.79c-33.792 33.792-52.941 52.224-57.549 55.296-9.728 6.451-22.323 12.083-33.382 14.746-8.397 2.048-11.366 2.253-25.088 1.843-13.005-0.512-17.101-1.024-24.781-3.277-33.587-10.035-58.88-36.659-67.686-71.27-1.536-6.042-1.946-11.059-1.843-24.064 0.102-14.746 0.41-17.306 2.867-25.498 3.686-12.288 10.445-24.986 18.432-34.918 8.294-10.342 281.907-283.546 288.973-288.563 6.861-4.915 20.89-11.571 28.57-13.517 26.829-6.963 54.477-0.922 76.39 16.691 11.776 9.523 283.443 282.214 288.87 289.997 6.451 9.216 11.571 19.763 14.848 30.413 2.355 8.090 2.662 10.752 2.765 25.395 0.102 13.005-0.307 18.022-1.843 24.064-9.216 36.147-35.738 62.874-71.885 72.294-20.275 5.325-44.442 3.174-63.693-5.837-16.998-7.885-20.48-10.854-74.138-64.307l-50.995-50.586-0.307 141.722c-0.307 158.208 0.307 145.203-7.578 164.659-10.138 25.293-32.666 46.285-59.494 55.501-13.312 4.608-30.72 6.042-45.773 3.891zM86.016 131.482c-27.341-3.072-54.374-19.968-69.939-43.622-5.632-8.704-11.264-21.914-13.722-32.563-2.662-11.776-2.458-33.894 0.512-44.749 10.65-39.117 41.779-67.379 81.101-73.421 5.734-0.922 112.026-1.126 427.008-0.922l419.328 0.307 8.192 2.355c9.728 2.662 23.142 8.909 31.744 14.746 30.208 20.275 47.309 60.211 41.062 95.846-6.451 37.069-30.72 65.741-65.638 77.722-16.794 5.734 8.499 5.427-439.296 5.325-226.918-0.102-416.154-0.614-420.352-1.024z" />
<glyph unicode="&#xe931;" glyph-name="drop" data-tags="drop" d="M378.88 827.187c-167.629-167.936-183.501-184.115-197.018-201.011-49.869-62.464-78.848-131.379-89.907-213.299-3.072-22.733-3.277-76.39-0.512-99.021 7.885-62.874 26.317-117.146 58.061-170.394 17.203-28.877 37.069-54.17 63.488-80.486 48.128-48.23 102.81-82.227 165.376-102.707 41.267-13.517 73.523-19.354 117.248-21.094 67.584-2.765 134.042 10.547 195.174 39.219 47.104 22.016 82.637 47.104 120.218 84.582 33.485 33.382 58.675 68.301 79.36 109.875 22.221 44.646 35.738 90.010 42.189 142.029 2.253 18.534 2.56 71.987 0.512 89.6-7.885 65.843-26.317 121.037-58.47 174.899-21.709 36.352-33.587 50.381-98.611 116.429-54.579 55.501-263.168 264.192-264.090 264.192-0.205 0-60.109-59.802-133.018-132.813zM890.573 349.491c-1.229-39.117-7.782-74.752-20.378-111.411-11.264-32.666-23.347-56.832-43.418-87.040-23.962-36.045-53.043-66.765-88.883-93.594-54.477-40.96-127.283-68.506-193.638-73.318-8.397-0.512-17.613-1.229-20.48-1.434-14.541-1.126-61.85 2.355-78.848 5.939l-6.144 1.229 10.752 1.843c33.075 5.734 70.758 16.179 102.912 28.467 153.6 58.778 274.534 180.429 332.39 334.336 3.072 8.090 5.734 14.643 5.939 14.643s0.102-8.909-0.205-19.661z" />
<glyph unicode="&#xe932;" glyph-name="drop-plus" data-tags="drop-plus" d="M241.971 818.381c-77.824-77.824-143.565-143.974-146.227-147.046-47.309-54.477-77.517-119.091-88.474-189.030-3.482-22.016-4.198-29.798-4.813-50.688-2.662-84.173 24.166-169.165 74.445-236.646 48.026-64.41 114.381-112.026 189.44-135.987 40.243-12.902 73.626-18.022 116.634-17.92 34.816 0.102 53.965 2.253 86.221 9.626 21.811 5.018 53.658 15.258 57.446 18.432 0.41 0.41-0.819 6.246-2.765 12.902s-3.994 14.746-4.71 17.818c-0.614 3.072-1.331 6.144-1.536 6.861-0.307 0.717-3.789-0.205-10.547-2.867-30.72-11.981-65.331-19.968-98.509-22.528-26.112-2.048-64.205-0.102-84.992 4.301-6.554 1.434-6.554 1.434 6.144 3.379 19.968 3.072 56.73 13.005 79.36 21.402 4.506 1.638 11.674 4.301 15.872 5.837 16.077 5.939 50.688 22.63 66.867 32.154 4.403 2.56 8.192 4.71 8.499 4.71s3.072 1.741 6.144 3.789l5.53 3.891v8.499c0 16.077 3.994 45.466 8.806 64.205 20.378 79.974 75.059 147.558 149.811 185.037 25.6 12.8 55.808 22.016 88.474 26.931 3.482 0.512 3.789 0.819 3.789 3.994 0 3.789-2.15 20.89-4.608 35.942-8.602 53.043-31.539 108.954-63.898 155.136-17.92 25.6-47.616 56.525-216.883 225.485l-94.106 94.003-141.414-141.619zM764.826 387.584c-55.194-8.090-105.165-35.738-141.107-78.336-26.419-31.13-43.827-69.12-50.995-111.104-2.56-15.155-2.662-55.398 0-70.349 6.861-40.141 22.426-75.264 47.411-107.11 13.414-16.998 36.454-37.274 57.242-50.381 26.829-16.896 65.331-30.208 95.334-33.075 10.547-0.922 38.707-0.922 49.050 0.102 15.053 1.434 37.888 6.758 53.555 12.595 70.042 25.805 123.802 85.504 141.517 157.082 2.56 10.445 3.482 14.95 5.632 28.672 1.434 8.499 1.741 37.376 0.614 48.333-5.632 53.453-28.16 101.274-65.126 138.65-29.594 29.798-63.283 49.050-105.779 60.416-24.474 6.554-60.518 8.397-87.347 4.506zM834.56 272.384v-72.192h144.384v-74.752h-144.384v-144.384h-74.752l-0.205 71.987-0.307 71.885-143.872 0.512v74.752l143.872 0.512 0.307 71.987 0.205 71.885h74.752v-72.192z" />
<glyph unicode="&#xe933;" glyph-name="drop-times" data-tags="drop-times" d="M241.971 818.381c-77.824-77.824-143.565-143.974-146.227-147.046-47.309-54.477-77.517-119.091-88.474-189.030-3.482-22.016-4.198-29.798-4.813-50.688-2.662-84.173 24.166-169.165 74.445-236.646 48.026-64.41 114.381-112.026 189.44-135.987 40.243-12.902 73.626-18.022 116.634-17.92 34.816 0.102 53.965 2.253 86.221 9.626 21.811 5.018 53.658 15.258 57.446 18.432 0.41 0.41-0.819 6.246-2.765 12.902s-3.994 14.746-4.71 17.818c-0.614 3.072-1.331 6.144-1.536 6.861-0.307 0.717-3.789-0.205-10.547-2.867-30.72-11.981-65.331-19.968-98.509-22.528-26.112-2.048-64.205-0.102-84.992 4.301-6.554 1.434-6.554 1.434 6.144 3.379 19.968 3.072 56.73 13.005 79.36 21.402 4.506 1.638 11.674 4.301 15.872 5.837 16.077 5.939 50.688 22.63 66.867 32.154 4.403 2.56 8.192 4.71 8.499 4.71s3.072 1.741 6.144 3.789l5.53 3.891v8.499c0 16.077 3.994 45.466 8.806 64.205 20.378 79.974 75.059 147.558 149.811 185.037 25.6 12.8 55.808 22.016 88.474 26.931 3.482 0.512 3.789 0.819 3.789 3.994 0 3.789-2.15 20.89-4.608 35.942-8.602 53.043-31.539 108.954-63.898 155.136-17.92 25.6-47.616 56.525-216.883 225.485l-94.106 94.003-141.414-141.619zM764.928 387.584c-26.112-3.891-46.592-10.445-70.963-22.63-6.656-3.379-13.414-6.963-14.848-7.987-1.536-0.922-5.018-3.379-7.885-5.222-12.8-8.602-21.504-15.77-34.304-28.672-15.053-15.053-22.528-24.474-34.611-43.315-9.421-14.848-21.402-44.134-25.702-62.874-5.325-23.245-5.734-26.419-5.734-53.555 0-22.63 0.307-27.75 2.253-38.707 8.602-47.206 29.491-87.45 62.874-121.037 19.149-19.354 33.178-29.696 56.422-41.984 56.422-29.594 126.362-33.587 185.446-10.65 35.43 13.824 67.072 35.942 90.112 62.976 20.48 24.166 31.744 43.622 44.032 76.39 4.813 12.493 9.626 37.376 11.162 56.832 5.632 71.168-25.19 143.667-80.691 189.85-31.744 26.419-69.53 43.52-110.49 50.176-16.077 2.662-51.098 2.867-67.072 0.41zM847.77 267.162l51.2 51.098 26.624-26.522 26.624-26.624-50.688-50.688c-27.853-27.853-50.586-50.995-50.586-51.61 0-0.512 22.733-23.757 50.381-51.405l50.483-50.483-53.248-53.248-101.888 101.888-101.888-101.888-53.248 53.248 101.888 101.888-101.888 101.888 53.248 53.248 101.888-101.888 51.098 51.098z" />
<glyph unicode="&#xe934;" glyph-name="edit" data-tags="edit" d="M857.498 946.074c-5.018-7.168-20.070-28.774-33.382-47.923-13.414-19.251-24.269-35.328-24.371-35.942 0-0.512 13.005-10.035 28.877-20.992s50.995-35.328 77.926-54.067c27.034-18.739 49.459-33.69 49.869-33.28s10.24 14.438 21.709 31.027c11.469 16.589 26.214 37.786 32.666 47.104s12.083 17.408 12.493 18.125c0.512 0.819-4.301 4.71-13.824 11.366-105.779 73.421-139.776 96.87-141.21 97.178-1.229 0.41-4.198-3.072-10.752-12.595zM0 396.8v-460.8h921.6l-0.205 279.859-0.307 279.757-50.893 0.307-50.995 0.205v-457.728h-716.8v716.8h583.68v102.4h-686.080v-460.8zM758.067 803.021c-11.366-16.384-38.093-54.989-59.392-85.709-63.488-91.341-141.005-203.059-188.723-271.872l-44.749-64.512-7.987-25.6c-4.301-14.029-11.981-38.912-17.101-55.296-5.018-16.282-15.155-49.050-22.528-72.704-13.517-43.93-19.456-63.078-35.123-113.664-11.674-37.376-10.854-34.509-9.421-33.587 0.717 0.41 49.664 37.99 108.749 83.661 59.187 45.568 114.79 88.576 123.699 95.334l16.179 12.493 37.99 54.682c35.635 51.2 93.184 134.144 151.347 218.010 13.926 19.968 42.701 61.44 64 92.16s43.725 62.976 49.869 71.782c6.042 8.806 11.059 16.179 11.059 16.486s-2.662 2.355-5.837 4.608c-3.277 2.253-38.298 26.522-77.722 53.862-39.526 27.443-72.294 49.869-72.704 49.869-0.512 0-10.24-13.517-21.606-30.003zM507.904 343.962c10.138-7.066 18.432-13.21 18.432-13.619 0-0.512-3.072-11.059-6.758-23.654-3.686-12.493-6.451-22.938-6.144-23.245 0.205-0.205 8.909 5.837 19.149 13.517 10.342 7.782 19.354 14.234 19.968 14.541 1.229 0.41 36.454-23.245 37.786-25.293 0.512-0.922-108.749-83.251-109.875-82.739-1.741 0.717-29.901 20.48-30.413 21.197-0.205 0.512 2.765 11.878 6.758 25.293 3.994 13.517 11.059 37.888 15.872 54.17 16.794 57.139 15.462 52.736 16.282 52.736 0.307 0 8.806-5.837 18.944-12.902z" />
<glyph unicode="&#xe935;" glyph-name="eye" data-tags="eye" d="M463.872 791.347c-16.794-1.024-43.418-5.222-60.826-9.626-25.498-6.451-45.568-13.824-69.222-25.6-26.522-13.21-45.056-25.293-67.994-44.237-14.643-12.083-264.806-261.427-264.806-263.885 0-2.048 246.784-248.525 260.608-260.301 54.989-46.694 117.043-73.523 189.44-81.818 7.578-0.922 27.648-1.331 61.44-1.331 54.17 0 63.386 0.614 92.058 6.144 55.501 10.752 110.182 37.069 154.214 73.933 4.198 3.584 65.638 64.41 136.499 135.168l128.717 128.717-126.669 126.464c-74.445 74.342-131.584 130.56-138.547 136.294-56.627 47.104-121.651 73.523-195.072 79.667-10.65 0.922-86.938 1.229-99.84 0.41zM536.064 728.576c55.808-5.222 107.418-25.702 150.528-59.802 12.698-10.035 37.683-35.021 46.797-46.797 11.469-14.746 23.142-33.382 31.027-49.562 48.333-98.611 35.84-213.606-32.666-300.544-9.626-12.186-35.84-37.581-49.254-47.718-40.55-30.618-84.48-48.538-136.704-55.808-12.8-1.843-54.784-1.843-67.584 0-26.522 3.686-47.206 9.114-71.373 18.739-36.454 14.438-68.506 36.045-96.563 64.922-21.504 22.221-37.581 44.851-50.688 71.578-47.923 97.792-36.147 211.149 30.925 298.394 15.974 20.685 48.64 50.074 71.475 64.307 52.326 32.563 115.098 47.821 174.080 42.291zM483.328 648.090c-16.282-2.355-15.974-2.048-5.325-7.066 26.522-12.595 43.827-31.232 53.453-57.651 9.523-26.214 7.782-54.374-5.222-80.077-9.523-19.046-25.702-35.021-45.466-44.749-45.158-22.426-100.762-7.27-128.614 35.021-8.602 13.107-14.746 30.003-15.974 44.237-0.307 4.506-1.024 7.168-1.638 6.758-1.741-1.126-10.035-19.866-14.234-32.256-19.866-59.699-11.264-124.006 23.654-176.538 35.226-52.941 92.467-85.709 155.955-89.395 45.261-2.56 86.938 8.704 124.416 33.69 75.981 50.483 108.442 146.227 79.053 232.755-24.474 72.397-86.835 124.109-162.816 135.27-13.414 2.048-43.418 2.048-57.242 0z" />
</font>
</defs>
</svg>
